<?xml version="1.0" encoding="utf-8"?>
<!-- Generator: Adobe Illustrator 23.0.1, SVG Export Plug-In . SVG Version: 6.00 Build 0)  -->
<svg version="1.1" id="Layer_1" xmlns="http://www.w3.org/2000/svg" xmlns:xlink="http://www.w3.org/1999/xlink" x="0px" y="0px"
	 viewBox="0 0 14 18" style="enable-background:new 0 0 14 18;" xml:space="preserve">
<g>
	<defs>
		<path id="SVGID_1_" style="fill: #9699ab" d="M13.4,0.2C13.6-0.1,14-0.1,14,0.5c0,0,0,0,0,0l0,9.7c-0.3,1.2-2.2,2.4-4.4,2.4c-0.9,0-1.7-0.3-2.4-0.6
			c-1.7-0.7-2.3-1.2-4.2-1.2c-1,0-2.3,0.2-3,0.5V0.9c0.7-0.4,1.9-0.6,3-0.6c1.1,0,1.7,0.1,3,0.7c0,0,1.2,0.7,3.2,0.7
			C11.8,1.8,13.2,0.3,13.4,0.2z M2,12.4V17c0,0.6-0.4,1-1,1s-1-0.5-1-1v-4l0.5-0.3C0.8,12.6,1.4,12.4,2,12.4z"/>
	</defs>
	<use xlink:href="#SVGID_1_"  style="overflow:visible;"/>
	<clipPath id="SVGID_2_">
		<use xlink:href="#SVGID_1_"  style="overflow:visible;"/>
	</clipPath>
</g>
</svg>
