<?xml version="1.0" encoding="utf-8"?>
<!-- Generator: Adobe Illustrator 23.0.1, SVG Export Plug-In . SVG Version: 6.00 Build 0)  -->
<svg version="1.1" id="Layer_1" xmlns="http://www.w3.org/2000/svg" xmlns:xlink="http://www.w3.org/1999/xlink" x="0px" y="0px"
	 viewBox="0 0 18 18" style="enable-background:new 0 0 18 18;" xml:space="preserve">
<g>
	<defs>
		<path id="SVGID_1_" style="fill: #9699ab" d="M9,6C8.1,6,7.4,5.3,7.4,4.4c0-0.9,0.7-1.6,1.6-1.6s1.6,0.7,1.6,1.6c0,0.4-0.2,0.8-0.5,1.1
			C9.8,5.8,9.4,6,9,6z M10.6,13.6c0,0.9-0.7,1.6-1.6,1.6s-1.6-0.7-1.6-1.6v-4C7.4,8.7,8.1,8,9,8s1.6,0.7,1.6,1.6V13.6z M9,0
			C4,0,0,4,0,9s4,9,9,9s9-4,9-9c0-2.4-0.9-4.7-2.6-6.4S11.4,0,9,0z"/>
	</defs>
	<use xlink:href="#SVGID_1_"  style="overflow:visible;"/>
	<clipPath id="SVGID_2_">
		<use xlink:href="#SVGID_1_"  style="overflow:visible;"/>
	</clipPath>
</g>
</svg>
