<?xml version="1.0" encoding="utf-8"?>
<!-- Generator: Adobe Illustrator 23.0.1, SVG Export Plug-In . SVG Version: 6.00 Build 0)  -->
<svg version="1.1" id="Layer_1" xmlns="http://www.w3.org/2000/svg" xmlns:xlink="http://www.w3.org/1999/xlink" x="0px" y="0px"
	 viewBox="0 0 24 25" style="enable-background:new 0 0 24 25;" xml:space="preserve">
<g>
	<defs>
		<path id="SVGID_1_" style="fill: #9699ab" d="M16.6,6.8c0.5,0,1,0.5,1,1c0,0.3-0.1,0.5-0.3,0.7c-0.4,0.4-1,0.4-1.4,0c-0.2-0.2-0.3-0.4-0.3-0.7
			c0-0.3,0.1-0.5,0.3-0.7C16,6.9,16.3,6.8,16.6,6.8z M17.2,4.9c-1.4-0.3-2.8,0.5-3.4,1.8c-0.5,1.3-0.1,2.8,1.1,3.6
			c1.2,0.8,2.8,0.6,3.8-0.4c0.6-0.6,0.9-1.3,0.9-2.1C19.6,6.4,18.6,5.1,17.2,4.9z M13.8,0.5l0.2,0L20.6,1c1.5,0.1,2.7,1.3,2.8,2.8
			l0.5,6.6c0.1,0.9-0.2,1.7-0.9,2.4l-8.2,8.2L3.5,9.5l8.2-8.2c0.6-0.6,1.5-0.9,2.4-0.9L13.8,0.5z M2.1,10.9l11.3,11.3l-1.1,1.1
			c-1.2,1.2-3.1,1.2-4.2,0L1,16.3c-0.6-0.6-0.9-1.3-0.9-2.1c0-0.8,0.3-1.6,0.9-2.1L2.1,10.9L2.1,10.9z"/>
	</defs>
	<use xlink:href="#SVGID_1_"  style="overflow:visible;"/>
	<clipPath id="SVGID_2_">
		<use xlink:href="#SVGID_1_"  style="overflow:visible;"/>
	</clipPath>
</g>
</svg>
