<?xml version="1.0" encoding="utf-8"?>
<!-- Generator: Adobe Illustrator 23.0.1, SVG Export Plug-In . SVG Version: 6.00 Build 0)  -->
<svg version="1.1" id="Layer_1" xmlns="http://www.w3.org/2000/svg" xmlns:xlink="http://www.w3.org/1999/xlink" x="0px" y="0px"
	 viewBox="0 0 21 18" style="enable-background:new 0 0 21 18;" xml:space="preserve">
<g>
	<defs>
		<path id="SVGID_1_" style="fill: #9699ab" d="M1.7,0c0.9,0,1.7,0.8,1.7,1.7c0,0.9-0.8,1.7-1.7,1.7l-0.1,0C0.7,3.3,0,2.6,0,1.7C0,0.8,0.8,0,1.7,0z
			 M18.6,0c0.9,0,1.7,0.8,1.7,1.7c0,0.9-0.8,1.7-1.7,1.7H6.7C5.8,3.4,5,2.6,5,1.7C5,0.8,5.8,0,6.7,0H18.6z M18.6,7.3
			c0.9,0,1.7,0.8,1.7,1.7s-0.8,1.7-1.7,1.7l-0.1,0c-0.9-0.1-1.5-0.8-1.5-1.7C16.9,8.1,17.6,7.3,18.6,7.3z M13.4,7.3
			c0.9,0,1.7,0.8,1.7,1.7s-0.8,1.7-1.7,1.7H1.7C0.8,10.7,0,9.9,0,9s0.8-1.7,1.7-1.7H13.4z M1.7,14.6c0.9,0,1.7,0.8,1.7,1.7
			S2.6,18,1.7,18l-0.1,0C0.7,17.9,0,17.2,0,16.3C0,15.4,0.8,14.6,1.7,14.6z M18.6,14.6c0.9,0,1.7,0.8,1.7,1.7S19.5,18,18.6,18H6.7
			C5.8,18,5,17.2,5,16.3s0.8-1.7,1.7-1.7H18.6z"/>
	</defs>
	<use xlink:href="#SVGID_1_"  style="overflow:visible;fill-rule:evenodd;clip-rule:evenodd;"/>
	<clipPath id="SVGID_2_">
		<use xlink:href="#SVGID_1_"  style="overflow:visible;"/>
	</clipPath>
</g>
</svg>
