<?xml version="1.0" encoding="utf-8"?>
<!-- Generator: Adobe Illustrator 23.0.1, SVG Export Plug-In . SVG Version: 6.00 Build 0)  -->
<svg version="1.1" id="Layer_1" xmlns="http://www.w3.org/2000/svg" xmlns:xlink="http://www.w3.org/1999/xlink" x="0px" y="0px"
	 viewBox="0 0 15 18" style="enable-background:new 0 0 15 18;" xml:space="preserve">
<g>
	<defs>
		<path id="SVGID_1_" d="M7.5,4.6c-1.6,0-2.8,1.2-2.8,2.7c0,1.5,1.3,2.7,2.8,2.7s2.8-1.2,2.8-2.7C10.3,5.8,9.1,4.6,7.5,4.6z M7.5,0
			C11.6,0,15,3.3,15,7.3c0,2.2-0.8,3.8-2.6,5.7L12,13.5c-0.6,0.6-1.6,1.6-2,2L9.6,16c-0.5,0.6-0.9,1.1-1.3,1.6
			c-0.4,0.5-1.1,0.5-1.5,0c-0.4-0.5-0.8-1.1-1.3-1.6l-0.3-0.3c-0.3-0.3-1.4-1.4-2-2.1L2.6,13C0.8,11.1,0,9.5,0,7.3
			C0,3.3,3.4,0,7.5,0z"/>
	</defs>
	<use xlink:href="#SVGID_1_"  style="overflow:visible;"/>
	<clipPath id="SVGID_2_">
		<use xlink:href="#SVGID_1_"  style="overflow:visible;"/>
	</clipPath>
</g>
</svg>
