<?xml version="1.0" encoding="utf-8"?>
<!-- Generator: Adobe Illustrator 23.0.1, SVG Export Plug-In . SVG Version: 6.00 Build 0)  -->
<svg version="1.1" id="Layer_1" xmlns="http://www.w3.org/2000/svg" xmlns:xlink="http://www.w3.org/1999/xlink" x="0px" y="0px"
	 viewBox="0 0 10 14" style="enable-background:new 0 0 10 14;" xml:space="preserve">
<g>
	<defs>
		<path id="SVGID_1_" d="M5,3.7H3.1l2.1-2.1C5.4,1.4,5.5,1,5.4,0.7C5.3,0.4,5.1,0.1,4.8,0C4.5-0.1,4.1,0,3.9,0.3L0.3,4
			c-0.4,0.4-0.4,1,0,1.3l3.6,3.7c0.4,0.4,0.9,0.4,1.3,0c0.4-0.4,0.4-1,0-1.3L3.1,5.6H5c1.8,0,3.2,1.5,3.2,3.3S6.8,12.1,5,12.1
			s-3.2-1.5-3.2-3.3c0-0.5-0.4-0.9-0.9-0.9S0,8.4,0,8.9C0,11.7,2.2,14,5,14s5-2.3,5-5.1S7.8,3.7,5,3.7z"/>
	</defs>
	<use xlink:href="#SVGID_1_"  style="overflow:visible;"/>
	<clipPath id="SVGID_2_">
		<use xlink:href="#SVGID_1_"  style="overflow:visible;"/>
	</clipPath>
</g>
</svg>
