<?xml version="1.0" encoding="utf-8"?>
<!-- Generator: Adobe Illustrator 23.0.1, SVG Export Plug-In . SVG Version: 6.00 Build 0)  -->
<svg version="1.1" id="Layer_1" xmlns="http://www.w3.org/2000/svg" xmlns:xlink="http://www.w3.org/1999/xlink" x="0px" y="0px"
	 viewBox="0 0 18 18" style="enable-background:new 0 0 18 18;" xml:space="preserve">
<g>
	<defs>
		<path id="SVGID_1_" style="fill: #9699ab" d="M11.2,6.4l-1,4.6l-3.2,0l1-4.6H11.2z M16.5,6.4C17.3,6.4,18,5.8,18,5c0-0.8-0.7-1.4-1.5-1.4h-1.7l0.4-1.8
			c0.1-0.4,0-0.8-0.2-1.1c-0.2-0.3-0.5-0.5-0.9-0.6c-0.1,0-0.2,0-0.3,0c-0.7,0-1.3,0.5-1.4,1.1l-0.5,2.4l-3.2,0l0.4-1.8
			C9,1.4,9,1,8.7,0.7C8.5,0.3,8.2,0.1,7.8,0C7.7,0,7.6,0,7.5,0C6.8,0,6.2,0.5,6.1,1.1L5.6,3.6h-3C1.7,3.6,1.1,4.2,1.1,5
			c0,0.8,0.7,1.4,1.5,1.4H5l-1,4.6H1.5c-0.8,0-1.5,0.6-1.5,1.4C0,13.3,0.7,14,1.5,14h1.9l-0.5,2.3C2.7,17,3.2,17.8,4,17.9
			c0.1,0,0.2,0,0.3,0c0.7,0,1.3-0.5,1.4-1.1L6.4,14h3.2l-0.5,2.3c-0.1,0.4,0,0.8,0.2,1.1c0.2,0.3,0.5,0.5,0.9,0.6c0.1,0,0.2,0,0.3,0
			c0.7,0,1.3-0.5,1.4-1.1l0.6-2.9h2.9c0.8,0,1.5-0.6,1.5-1.4c0-0.8-0.7-1.4-1.5-1.4h-2.2l1-4.6L16.5,6.4L16.5,6.4z"/>
	</defs>
	<use xlink:href="#SVGID_1_"  style="overflow:visible;"/>
	<clipPath id="SVGID_2_">
		<use xlink:href="#SVGID_1_"  style="overflow:visible;"/>
	</clipPath>
</g>
</svg>
