<?xml version="1.0" encoding="utf-8"?>
<!-- Generator: Adobe Illustrator 23.0.1, SVG Export Plug-In . SVG Version: 6.00 Build 0)  -->
<svg version="1.1" id="Layer_1" xmlns="http://www.w3.org/2000/svg" xmlns:xlink="http://www.w3.org/1999/xlink" x="0px" y="0px"
	 viewBox="0 0 31 24" style="enable-background:new 0 0 31 24;" xml:space="preserve">
<style type="text/css">
	.st0{fill:#FE544B;}
	.st1{fill:#9699AB;}
</style>
<title>Group 9</title>
<desc>Created with Sketch.</desc>
<g id="Page-1">
	<g id="Group-9" transform="translate(1.432129, 1.000000)">
		<path id="Path-6" class="st0" d="M14.1,1.2l13.5,9.2c0.5,0.3,1.1,0.2,1.4-0.3c0.3-0.5,0.2-1.1-0.3-1.4l-14-9.6
			c-0.3-0.2-0.8-0.2-1.1,0L-0.6,8.8C-1,9.1-1.1,9.7-0.8,10.2c0.3,0.5,0.9,0.6,1.4,0.3L14.1,1.2z"/>
		<path id="Path" class="st0" d="M21.6,2h1v4.5h2V1c0-0.6-0.4-1-1-1h-3c-0.6,0-1,0.4-1,1v3.4h2V2z"/>
		<path id="Combined-Shape" class="st1" d="M24.4,10c0.6,0,1,0.4,1,1l0,0v11c0,0.6-0.4,1-1,1l0,0H3.7c-0.6,0-1-0.4-1-1l0,0V11
			c0-0.6,0.4-1,1-1s1,0.4,1,1l0,0v10l6,0l0-7c0-0.5,0.4-0.9,0.9-1l0.1,0h4.7c0.6,0,1,0.4,1,1l0,0l0,7l6.1,0V11
			C23.4,10.5,23.9,10,24.4,10z M15.3,15h-2.7l0,6h2.7L15.3,15z"/>
	</g>
</g>
</svg>
