<?xml version="1.0" encoding="utf-8"?>
<!-- Generator: Adobe Illustrator 23.0.1, SVG Export Plug-In . SVG Version: 6.00 Build 0)  -->
<svg version="1.1" id="Layer_1" xmlns="http://www.w3.org/2000/svg" xmlns:xlink="http://www.w3.org/1999/xlink" x="0px" y="0px"
	 viewBox="0 0 24 23" style="enable-background:new 0 0 24 23;" xml:space="preserve">
<style type="text/css">
	.st0{fill-rule:evenodd;clip-rule:evenodd;fill:#9699AB;}
	.st1{fill-rule:evenodd;clip-rule:evenodd;fill:#FE544B;}
</style>
<title>Group 10</title>
<desc>Created with Sketch.</desc>
<g id="Page-1">
	<g id="Group-10">
		<path id="Combined-Shape" class="st0" d="M21,3.7c0.6,0,1,0.4,1,1V21h1c0.6,0,1,0.4,1,1s-0.4,1-1,1H1c-0.6,0-1-0.4-1-1s0.4-1,1-1
			h1l0,0V4.7c0-0.6,0.4-1,1-1s1,0.4,1,1V21l5,0v-5.2c0-1,0.9-1.7,1.8-1.8l0.2,0h2c1.1,0,2,0.7,2,1.8l0,0V21l5,0l0,0V4.7
			C20,4.2,20.4,3.7,21,3.7z M13,16h-2l0,0v5h2V16z M11,15.8c0,0.2,0,0.2,0,0.2l0,0V15.8z M13,15.8V16C13,16,13,16,13,15.8z"/>
		<path id="Rectangle" class="st1" d="M7,5L7,5c0.6,0,1,0.4,1,1v1c0,0.6-0.4,1-1,1l0,0C6.4,8,6,7.6,6,7V6C6,5.4,6.4,5,7,5z"/>
		<path id="Rectangle-Copy-10" class="st1" d="M12,5L12,5c0.6,0,1,0.4,1,1v1c0,0.6-0.4,1-1,1l0,0c-0.6,0-1-0.4-1-1V6
			C11,5.4,11.4,5,12,5z"/>
		<path id="Rectangle-Copy-11" class="st1" d="M17,5L17,5c0.6,0,1,0.4,1,1v1c0,0.6-0.4,1-1,1l0,0c-0.6,0-1-0.4-1-1V6
			C16,5.4,16.4,5,17,5z"/>
		<path id="Rectangle-Copy-14" class="st1" d="M7,10L7,10c0.6,0,1,0.4,1,1v1c0,0.6-0.4,1-1,1l0,0c-0.6,0-1-0.4-1-1v-1
			C6,10.4,6.4,10,7,10z"/>
		<path id="Rectangle-Copy-15" class="st1" d="M7,15L7,15c0.6,0,1,0.4,1,1v1c0,0.6-0.4,1-1,1l0,0c-0.6,0-1-0.4-1-1v-1
			C6,15.4,6.4,15,7,15z"/>
		<path id="Rectangle-Copy-13" class="st1" d="M12,10L12,10c0.6,0,1,0.4,1,1v1c0,0.6-0.4,1-1,1l0,0c-0.6,0-1-0.4-1-1v-1
			C11,10.4,11.4,10,12,10z"/>
		<path id="Rectangle-Copy-12" class="st1" d="M17,15L17,15c0.6,0,1,0.4,1,1v1c0,0.6-0.4,1-1,1l0,0c-0.6,0-1-0.4-1-1v-1
			C16,15.4,16.4,15,17,15z"/>
		<path id="Rectangle-Copy-16" class="st1" d="M17,10L17,10c0.6,0,1,0.4,1,1v1c0,0.6-0.4,1-1,1l0,0c-0.6,0-1-0.4-1-1v-1
			C16,10.4,16.4,10,17,10z"/>
		<path class="st1" d="M1,0h22c0.6,0,1,0.4,1,1l0,0c0,0.6-0.4,1-1,1H1C0.4,2,0,1.6,0,1l0,0C0,0.4,0.4,0,1,0z"/>
	</g>
</g>
</svg>
