<svg id="Layer_1" data-name="Layer 1" xmlns="http://www.w3.org/2000/svg" viewBox="0 0 27.04 22.88"><defs><style>.cls-1{fill:#9699ab;}.cls-2{fill:#fe544b;}</style></defs><title>autoresponder</title><path class="cls-1" d="M18.76,20.8H3.05V7.86A1,1,0,1,0,1,7.86v14a1,1,0,0,0,1,1H19.8a1,1,0,0,0,1-1V13.57a1,1,0,1,0-2.08,0Z" transform="translate(-0.96 0)"/><path class="cls-2" d="M17.26.94V3.81c4.28.4,7.33,2.08,9.06,5A14.5,14.5,0,0,1,28,16.18a1,1,0,0,1-.71.92.74.74,0,0,1-.25,0,1,1,0,0,1-.83-.49c-2.17-3.76-4.23-4.65-6-5a.94.94,0,0,1-.74-1.11,1,1,0,0,1,1.13-.73,9.4,9.4,0,0,1,5.16,3C25.09,9.32,22.86,6,16.24,5.64a.93.93,0,0,1-.91-.94V2.81L8.57,7.56l6.76,4.78V10.45a1,1,0,0,1,1.93,0v3.73a.94.94,0,0,1-.53.84,1,1,0,0,1-1-.08L6.35,8.32a1,1,0,0,1-.42-.76.87.87,0,0,1,.42-.76L15.74.19a1,1,0,0,1,1.52.75Z" transform="translate(-0.96 0)"/></svg>