<?xml version="1.0" encoding="utf-8"?>
<!-- Generator: Adobe Illustrator 23.0.1, SVG Export Plug-In . SVG Version: 6.00 Build 0)  -->
<svg version="1.1" id="Layer_1" xmlns="http://www.w3.org/2000/svg" xmlns:xlink="http://www.w3.org/1999/xlink" x="0px" y="0px"
	 viewBox="0 0 25 25" style="enable-background:new 0 0 25 25;" xml:space="preserve">
<style type="text/css">
	.st0{fill:#FE544B;}
	.st1{fill:#9699AB;}
</style>
<title>Group 3 Copy 4</title>
<desc>Created with Sketch.</desc>
<g id="Page-1">
	<g id="Group-3-Copy-4" transform="translate(1.000000, 1.000000)">
		<path id="Path" class="st0" d="M10.7,13.3L7.6,11c-0.4-0.3-1.1-0.2-1.4,0.2c-0.3,0.4-0.2,1.1,0.2,1.4l4,2.9
			c0.5,0.3,1.1,0.2,1.4-0.2l5-6.7c0.3-0.5,0.2-1.1-0.3-1.4S15.5,7,15.2,7.4L10.7,13.3z"/>
		<path id="Rectangle" class="st1" d="M20-1c2.2,0,4,1.8,4,4v17c0,2.2-1.8,4-4,4H3c-2.2,0-4-1.8-4-4V3c0-2.2,1.8-4,4-4H20z M20,1H3
			C1.9,1,1,1.9,1,3v17c0,1.1,0.9,2,2,2h17c1.1,0,2-0.9,2-2V3C22,1.9,21.1,1,20,1z"/>
	</g>
</g>
</svg>
