<?xml version="1.0" encoding="utf-8"?>
<!-- Generator: Adobe Illustrator 23.0.1, SVG Export Plug-In . SVG Version: 6.00 Build 0)  -->
<svg version="1.1" id="Layer_1" xmlns="http://www.w3.org/2000/svg" xmlns:xlink="http://www.w3.org/1999/xlink" x="0px" y="0px"
	 viewBox="0 0 29 25" style="enable-background:new 0 0 29 25;" xml:space="preserve">
<style type="text/css">
	.st0{fill-rule:evenodd;clip-rule:evenodd;fill:#9699AB;}
	.st1{fill:#FE544B;}
	.st2{fill:#9699AB;}
</style>
<title>Group 13</title>
<desc>Created with Sketch.</desc>
<g id="Page-1">
	<g id="Group-13" transform="translate(-0.995117, 0.492308)">
		<path id="Rectangle" class="st0" d="M2,22.5h27c0.6,0,1,0.4,1,1s-0.4,1-1,1h-0.4l0,0H2c-0.6,0-1-0.4-1-1S1.4,22.5,2,22.5z"/>
		<path id="Path-10" class="st1" d="M11.6,5.9L15,2.4l3.6,3.5v15.7h2V5.5c0-0.3-0.1-0.5-0.3-0.7l-4.6-4.5c-0.4-0.4-1-0.4-1.4,0
			L9.9,4.8C9.7,4.9,9.6,5.2,9.6,5.5v3.5h2V5.9z"/>
		<path id="Path-11" class="st1" d="M7,12.4h5.8v9.2h2V11.4c0-0.6-0.4-1-1-1H6c-0.6,0-1,0.4-1,1v10.2h2V12.4z"/>
		<path id="Path-13" class="st1" d="M24.1,8.5v13.1h2V7.5c0-0.6-0.4-1-1-1h-3v2H24.1z"/>
		<path id="Path-12" class="st2" d="M8.9,16.3H11c0.6,0,1-0.4,1-1c0-0.6-0.4-1-1-1H8.9c-0.6,0-1,0.4-1,1C7.9,15.8,8.3,16.3,8.9,16.3
			z"/>
		<path id="Path-12-Copy" class="st2" d="M8.9,19.5H11c0.6,0,1-0.4,1-1s-0.4-1-1-1H8.9c-0.6,0-1,0.4-1,1S8.3,19.5,8.9,19.5z"/>
		<circle id="Oval" class="st0" cx="15" cy="7" r="1.5"/>
	</g>
</g>
</svg>
