<?xml version="1.0" encoding="utf-8"?>
<!-- Generator: Adobe Illustrator 23.0.1, SVG Export Plug-In . SVG Version: 6.00 Build 0)  -->
<svg version="1.1" id="Layer_1" xmlns="http://www.w3.org/2000/svg" xmlns:xlink="http://www.w3.org/1999/xlink" x="0px" y="0px"
	 viewBox="0 0 26 26" style="enable-background:new 0 0 26 26;" xml:space="preserve">
<style type="text/css">
	.st0{fill:#9699AB;}
	.st1{fill:#FE544B;}
</style>
<title>Group 3 Copy 2</title>
<desc>Created with Sketch.</desc>
<g id="Page-1">
	<g id="Group-3-Copy-2">
		<path id="Path" class="st0" d="M24,9v13c0,1.1-0.9,2-2,2H4c-1.1,0-2-0.9-2-2V4c0-1.1,0.9-2,2-2h10.3c0.6,0,1-0.4,1-1s-0.4-1-1-1H4
			C1.8,0,0,1.8,0,4v18c0,2.2,1.8,4,4,4h18c2.2,0,4-1.8,4-4V9c0-0.6-0.4-1-1-1S24,8.5,24,9z"/>
		<path class="st1" d="M12.3,15.4l-4.4-3.2c-0.4-0.3-1.1-0.2-1.4,0.2c-0.3,0.4-0.2,1.1,0.2,1.4l5.2,3.8c0.5,0.3,1.1,0.2,1.4-0.2
			l9.6-13.8c0.3-0.5,0.2-1.1-0.3-1.4S21.6,2,21.3,2.4L12.3,15.4z"/>
	</g>
</g>
</svg>
