<?xml version="1.0" encoding="utf-8"?>
<!-- Generator: Adobe Illustrator 23.0.1, SVG Export Plug-In . SVG Version: 6.00 Build 0)  -->
<svg version="1.1" id="Layer_1" xmlns="http://www.w3.org/2000/svg" xmlns:xlink="http://www.w3.org/1999/xlink" x="0px" y="0px"
	 viewBox="0 0 23 24" style="enable-background:new 0 0 23 24;" xml:space="preserve">
<style type="text/css">
	.st0{fill:#FE544B;}
	.st1{fill-rule:evenodd;clip-rule:evenodd;fill:#9699AB;}
</style>
<title>Group 11</title>
<desc>Created with Sketch.</desc>
<g id="Page-1">
	<g id="Group-11">
		<path id="Combined-Shape" class="st0" d="M3.6,4.4l0-0.1c0-0.2,0.1-0.5,0.3-0.6C5.4,2.3,7.2,1.8,9.3,2c0.6,0.1,1.3,0.3,2,0.6
			C11.7,2.9,12,3,12.5,3.4l0,0L13,3.7l1.4,0.9c1.5,1,2.3,1.4,3.2,1.5c1.6,0.2,2.8-0.3,3.6-1.6c0.3-0.5,0.9-0.6,1.4-0.3
			C22.8,4.4,23,4.7,23,5.1l0,0l0,10l0,0.1c0,0.1-0.1,0.3-0.1,0.4c-1.3,2-3.2,2.9-5.5,2.6c-1.5-0.2-2.6-0.8-4.6-2.2l0,0L12,15.5
			c-0.7-0.5-1-0.7-1.4-0.9l0,0l-0.3-0.2C9.9,14.2,9.4,14.1,9,14c-1.5-0.2-2.8,0.2-3.8,1.1c-0.4,0.4-1,0.3-1.4-0.1
			c-0.2-0.2-0.3-0.4-0.3-0.7L3.6,4.4z M9,9C7.7,8.9,6.5,9.2,5.6,9.9l0,2.7c1.1-0.5,2.3-0.7,3.7-0.5c0.6,0.1,1.3,0.3,2,0.6
			c0.4,0.2,0.8,0.4,1.3,0.8l0,0l0.4,0.3l1.4,0.9c1.5,1,2.3,1.4,3.2,1.5c1.5,0.2,2.6-0.2,3.4-1.4l0-2.3c-1,0.6-2.3,0.9-3.7,0.7
			c-1.5-0.2-2.6-0.8-4.6-2.2l0,0L12,10.5c-0.7-0.5-1-0.7-1.4-0.9l0,0l-0.3-0.2C9.9,9.2,9.4,9.1,9,9z M9,4C7.7,3.8,6.5,4.1,5.6,4.8
			l0,2.7c1.1-0.5,2.3-0.7,3.7-0.5c0.6,0.1,1.3,0.3,2,0.6c0.4,0.2,0.8,0.4,1.3,0.8l0,0L13,8.7l1.4,0.9c1.5,1,2.3,1.4,3.2,1.5
			c1.5,0.2,2.6-0.3,3.4-1.4l0-2.3c-1,0.6-2.3,0.9-3.7,0.7c-1.5-0.2-2.6-0.8-4.6-2.2l0,0l-0.4-0.3c-0.6-0.4-1-0.7-1.4-0.9l0,0
			l-0.2-0.1l-0.3-0.2C9.9,4.2,9.4,4,9,4z"/>
		<path id="Rectangle" class="st1" d="M1,0L1,0c0.6,0,1,0.4,1,1v22c0,0.6-0.4,1-1,1l0,0c-0.6,0-1-0.4-1-1V1C0,0.4,0.4,0,1,0z"/>
	</g>
</g>
</svg>
