<?xml version="1.0" encoding="utf-8"?>
<!-- Generator: Adobe Illustrator 23.0.1, SVG Export Plug-In . SVG Version: 6.00 Build 0)  -->
<svg version="1.1" id="Layer_1" xmlns="http://www.w3.org/2000/svg" xmlns:xlink="http://www.w3.org/1999/xlink" x="0px" y="0px"
	 viewBox="0 0 24 24" style="enable-background:new 0 0 24 24;" xml:space="preserve">
<style type="text/css">
	.st0{fill:#FE544B;}
	.st1{fill:#9699AB;}
</style>
<title>Group 5</title>
<desc>Created with Sketch.</desc>
<g id="Page-1">
	<g id="Group-5" transform="translate(1.000000, 1.000000)">
		<path id="Oval" class="st0" d="M11,6c2.8,0,5,2.2,5,5s-2.2,5-5,5s-5-2.2-5-5S8.2,6,11,6z M11,8c-1.7,0-3,1.3-3,3s1.3,3,3,3
			s3-1.3,3-3S12.7,8,11,8z"/>
		<path id="Path" class="st1" d="M16.8,16.1C21,16.4,23,14.2,23,11c0-6.6-5.4-12-12-12S-1,4.4-1,11s5.4,12,12,12h11c0.6,0,1-0.4,1-1
			s-0.4-1-1-1H11C5.5,21,1,16.5,1,11S5.5,1,11,1s10,4.5,10,10c0,2.1-1.1,3.3-4,3.1c-0.6,0-1,0.4-1.1,0.9
			C15.9,15.5,16.3,16,16.8,16.1z"/>
	</g>
</g>
</svg>
