<?xml version="1.0" encoding="utf-8"?>
<!-- Generator: Adobe Illustrator 23.0.1, SVG Export Plug-In . SVG Version: 6.00 Build 0)  -->
<svg version="1.1" id="Layer_1" xmlns="http://www.w3.org/2000/svg" xmlns:xlink="http://www.w3.org/1999/xlink" x="0px" y="0px"
	 viewBox="0 0 24 24" style="enable-background:new 0 0 24 24;" xml:space="preserve">
<style type="text/css">
	.st0{fill:#9699AB;}
	.st1{fill:#FE544B;}
</style>
<title>Group 6 Copy</title>
<desc>Created with Sketch.</desc>
<g id="Page-1">
	<g id="Group-6-Copy">
		<path id="Combined-Shape" class="st0" d="M18.1,0L24,6v0.9L24.1,7H24v14c0,1.7-1.3,3-3,3H3c-1.7,0-3-1.3-3-3V3c0-1.7,1.3-3,3-3
			H18.1z M17,2L3,2C2.4,2,2,2.4,2,3v18c0,0.6,0.4,1,1,1h18c0.6,0,1-0.4,1-1V7h-3c-1.1,0-2-0.9-2-2V2z"/>
		<path id="Path-3-Copy-3" class="st1" d="M8,20h8.1c0.6,0,1-0.4,1-1s-0.4-1-1-1H8c-0.6,0-1,0.4-1,1S7.4,20,8,20z"/>
		<path id="Path" class="st1" d="M11.3,5.3C11.5,5.1,11.8,5,12,5c0.3,0,0.5,0.1,0.7,0.3l3.6,3.6c0.3,0.4,0.3,1-0.1,1.3
			c-0.4,0.4-0.9,0.4-1.3,0.1L13,8.3V15c0,0.4-0.1,0.7-0.5,0.9c-0.3,0.2-0.7,0.2-1,0c-0.3-0.2-0.5-0.6-0.5-0.9V8.3l-1.9,1.8
			c-0.4,0.4-1,0.4-1.4,0.1s-0.4-1-0.1-1.4L11.3,5.3z"/>
	</g>
</g>
</svg>
