<?xml version="1.0" encoding="utf-8"?>
<!-- Generator: Adobe Illustrator 23.0.1, SVG Export Plug-In . SVG Version: 6.00 Build 0)  -->
<svg version="1.1" id="Layer_1" xmlns="http://www.w3.org/2000/svg" xmlns:xlink="http://www.w3.org/1999/xlink" x="0px" y="0px"
	 viewBox="0 0 20 24" style="enable-background:new 0 0 20 24;" xml:space="preserve">
<style type="text/css">
	.st0{fill:#FE544B;}
	.st1{fill:#9699AB;}
</style>
<title>Shape 2</title>
<desc>Created with Sketch.</desc>
<g id="Page-1">
	<g id="Shape-2">
		<path id="Path" class="st0" d="M10,0c3.3,0,5.5,2.4,5.5,5.8c0,3.6-2.5,6.5-5.5,6.5c-3,0-5.5-2.9-5.5-6.5C4.5,2.4,6.8,0,10,0z
			 M10,2C7.9,2,6.5,3.5,6.5,5.8c0,2.5,1.7,4.5,3.5,4.5c1.9,0,3.5-1.9,3.5-4.5C13.5,3.5,12.1,2,10,2z"/>
		<path class="st1" d="M10,13.1l0.1,0c5.8,0,9.2,2.1,9.8,6.1l0,0.3l0,1.5l0,0c-2.7,1.9-6,3-9.5,3.1L10,24c-3.7,0-6.9-0.9-9.6-2.8
			L0,20.9l0,0v0l0,0l0,0l0-1.5c0,0,0,0,0,0c0.4-4,3.8-6.2,9.5-6.3L10,13.1l0.1,0L10,13.1z M9.5,15.1c-4.6,0.1-7.1,1.6-7.5,4.3l0,0.2
			l0,0.3C4.3,21.3,7,22,10,22c2.9,0,5.7-0.7,8-2.1l0-0.2l0-0.2c-0.4-2.8-3-4.3-7.8-4.3l-0.1,0L9.5,15.1z"/>
	</g>
</g>
</svg>
