<?xml version="1.0" encoding="utf-8"?>
<!-- Generator: Adobe Illustrator 23.0.1, SVG Export Plug-In . SVG Version: 6.00 Build 0)  -->
<svg version="1.1" id="Layer_1" xmlns="http://www.w3.org/2000/svg" xmlns:xlink="http://www.w3.org/1999/xlink" x="0px" y="0px"
	 viewBox="0 0 35 26" style="enable-background:new 0 0 35 26;" xml:space="preserve">
<style type="text/css">
	.st0{fill:#FE544B;}
	.st1{fill-rule:evenodd;clip-rule:evenodd;fill:#9699AB;}
</style>
<title>Group</title>
<desc>Created with Sketch.</desc>
<g id="Page-1">
	<g id="Group">
		<path id="Shape" class="st0" d="M33.2,3.2c1,0.5,1.4,1.7,0.9,2.7l-8.6,16.8c-0.2,0.4-0.6,0.8-1,0.9L19,25.9
			c-0.6,0.2-1.2-0.1-1.4-0.7l-1.2-5.7c-0.1-0.5,0-0.9,0.2-1.3l8.6-16.8c0.5-1,1.7-1.4,2.7-0.9L33.2,3.2z M24,21.1l-5.3-2.7L18.3,19
			l1,4.5l4.4-1.8L24,21.1z M29.7,9.9l-5.3-2.7l-4.8,9.5l5.3,2.7L29.7,9.9z M32.2,5l-5.3-2.7l-1.6,3.1l5.3,2.7L32.2,5z"/>
		<path id="Rectangle" class="st1" d="M1,2h18c0.6,0,1,0.4,1,1l0,0c0,0.6-0.4,1-1,1H1C0.4,4,0,3.6,0,3l0,0C0,2.4,0.4,2,1,2z"/>
		<path id="Rectangle-Copy" class="st1" d="M1,8h15c0.6,0,1,0.4,1,1l0,0c0,0.6-0.4,1-1,1H1c-0.6,0-1-0.4-1-1l0,0C0,8.4,0.4,8,1,8z"
			/>
		<path id="Rectangle-Copy-2" class="st1" d="M1,8h15c0.6,0,1,0.4,1,1l0,0c0,0.6-0.4,1-1,1H1c-0.6,0-1-0.4-1-1l0,0C0,8.4,0.4,8,1,8z
			"/>
		<path id="Rectangle-Copy-3" class="st1" d="M1,14h13c0.6,0,1,0.4,1,1l0,0c0,0.6-0.4,1-1,1H1c-0.6,0-1-0.4-1-1l0,0
			C0,14.4,0.4,14,1,14z"/>
		<path id="Rectangle-Copy-4" class="st1" d="M1,20h12c0.6,0,1,0.4,1,1l0,0c0,0.6-0.4,1-1,1H1c-0.6,0-1-0.4-1-1l0,0
			C0,20.4,0.4,20,1,20z"/>
	</g>
</g>
</svg>
