<?xml version="1.0" encoding="utf-8"?>
<!-- Generator: Adobe Illustrator 23.0.1, SVG Export Plug-In . SVG Version: 6.00 Build 0)  -->
<svg version="1.1" id="Layer_1" xmlns="http://www.w3.org/2000/svg" xmlns:xlink="http://www.w3.org/1999/xlink" x="0px" y="0px"
	 viewBox="0 0 24 24" style="enable-background:new 0 0 24 24;" xml:space="preserve">
<style type="text/css">
	.st0{fill:#FE544B;}
	.st1{fill:#9699AB;}
</style>
<title>Group 3</title>
<desc>Created with Sketch.</desc>
<g id="Page-1">
	<g id="Group-3">
		<path id="Shape" class="st0" d="M21.6,0H2.1C1,0,0,1,0,2.1v19.5c0,1.2,1,2.1,2.1,2.1h19.5c1.2,0,2.1-1,2.1-2.1V2.1
			C23.8,0.9,22.8,0,21.6,0z M2.1,1.8h19.5C21.8,1.8,22,2,22,2.1v13.6L16.2,10c-0.4-0.4-0.9-0.4-1.3,0l-5.4,5.4l-1.8-1.8
			c-0.4-0.4-0.9-0.4-1.3,0l-4.6,4.5V2.1C1.8,2,2,1.8,2.1,1.8z M1.8,21.6v-0.8L7,15.6l6.4,6.4H2.1C2,22,1.8,21.8,1.8,21.6z M21.6,22
			h-5.7l-5.2-5.2l4.8-4.8l6.4,6.4v3.3C22,21.8,21.8,22,21.6,22z"/>
		<circle id="Oval" class="st1" cx="8.8" cy="7.6" r="1.5"/>
	</g>
</g>
</svg>
