<svg xmlns="http://www.w3.org/2000/svg" viewBox="0 0 911.01 244.96"><title>Asset 1</title>
    <style type="text/css">
        .color{fill: #9699ab;}
    </style>
    <g id="Layer_2" data-name="Layer 2">
        <g id="Isolation_Mode" data-name="Isolation Mode">
            <path class="color" d="M353.28,93.63c-11.7,0-17.48,9.21-20.14,15.14-1.48,3.32-1.9,5.94-3.1,5.94-1.69,0-.48-2.28-1.87-7.33-1.82-6.65-7.32-13.75-19-13.75-12.29,0-17.55,10.38-20,16.09-1.71,3.9-1.71,5-3,5-1.9,0-.32-3.1.53-6.74A30.34,30.34,0,0,0,287,95.32H267.55v73.24h26.59V132.12c0-7.19,3-16.31,8.16-16.31,5.95,0,7.14,4.58,7.14,13v39.73h26.7V132.12c0-6.4,2.61-16.31,8.2-16.31,6,0,7.11,6.43,7.11,13v39.71h26.21V125.49C377.66,106.38,370.92,93.63,353.28,93.63Z"/>
            <path class="color" d="M804.57,93.63c-11.69,0-17.48,9.21-20.14,15.14-1.48,3.32-1.89,5.94-3.1,5.94-1.69,0-.56-2.89-1.86-7.33-2-6.61-6.8-13.75-19-13.75s-17.55,10.38-20,16.09c-1.71,3.9-1.71,5-3,5-1.9,0-.33-3.1.53-6.74a30.42,30.42,0,0,0,.4-12.65H718.84v73.24h26.59V132.12c0-7.19,3-16.31,8.16-16.31,6,0,7.15,4.58,7.15,13v39.73h26.69V132.12c0-6.4,2.61-16.31,8.2-16.31,6,0,7.11,6.43,7.11,13v39.71H829V125.49C829,106.38,822.22,93.63,804.57,93.63Z"/>
            <path class="color" d="M423.06,93.65a83.71,83.71,0,0,0-35,7.49v22s16.14-9.28,29.23-9.28c10.45,0,11.74,5.63,11.26,10.31,0,0-3-.8-12.21-.8-21.67,0-32.61,9.85-32.61,25.65,0,15,12.29,21.24,22.65,21.24,15.12,0,21.76-10.16,23.8-15,1.42-3.34,1.68-5.59,2.95-5.59,1.45,0,1,1.61.89,4.94-.12,5.83.15,10.23,1.08,13.94h20V132.53C455.16,110,447.19,93.65,423.06,93.65Zm-6.47,57.8c-6.36,1.46-9.66-.49-9.66-4.71,0-5.77,6-8.08,14.5-8.08,3.76,0,7.29.32,7.29.32C428.72,141.45,423.35,149.88,416.59,151.45Z"/>
            <rect class="color" x="498.95" y="73.15" width="26.59" height="95.44"/>
            <path class="color" d="M554.81,132c0-6.59,6.12-12.58,17.35-12.58,12.24,0,22.08,5.89,24.29,7.23V101.14s-7.78-7.49-26.89-7.49c-20.15,0-36.93,11.79-36.93,37.17s15.23,39.45,36.87,39.45c16.91,0,27-9.29,27-9.29v-24.2c-3.19,1.79-12.07,7.95-24.21,7.95C559.43,144.73,554.81,138.82,554.81,132Z"/>
            <path class="color" d="M650.31,93.65c-15.39,0-21.25,14.59-22.43,17.12s-1.76,4-2.73,4c-1.68-.06-.51-3.11.14-5.09a86.15,86.15,0,0,0,3.86-25.59c0-8.17-1.1-10.9-1.1-10.9H605.1v95.43h26.59V132.14c0-5.94,2.36-16.31,9.06-16.31,5.55,0,7.29,4.11,7.29,12.39v40.36h26.59V129.81C674.63,111,671.51,93.65,650.31,93.65Z"/>
            <path class="color" d="M683.27,95.42v73.16h26.59V95.42S705.39,98,696.59,98,683.27,95.42,683.27,95.42Z"/>
            <ellipse class="color" cx="696.48" cy="83.03" rx="16.28" ry="10.62"/>
            <path class="color" d="M463.76,95.42v73.16h26.59V95.42S485.88,98,477.08,98,463.76,95.42,463.76,95.42Z"/>
            <ellipse class="color" cx="476.98" cy="83.03" rx="16.28" ry="10.62"/>
            <path class="color" d="M881.78,93.63c-13.67,0-19.93,10.25-22.65,16.09-1.8,3.86-1.71,5-3,5-1.91,0-.33-3.1.53-6.74a30.42,30.42,0,0,0,.4-12.65H837.56v93.47h26.59V159.16c3.14,5.34,9,11,18,11,19.22,0,28.9-16.27,28.9-38.25C911,107,899.43,93.63,881.78,93.63Zm-7.3,59.21c-6.1,0-10.58-7.73-10.58-18.51,0-10.46,4.61-18.5,10.37-18.5,7.4,0,10.56,6.78,10.56,18.5C884.83,146.52,881.92,152.84,874.48,152.84Z"/>
            <path class="color" d="M173.62,115.76a19.11,19.11,0,0,1,5.07,0c.91-2.09,1.07-5.69.25-9.62-1.22-5.83-2.87-9.35-6.27-8.8s-3.54,4.77-2.32,10.6A19.78,19.78,0,0,0,173.62,115.76Z"/>
            <path class="color" d="M144.37,120.37c2.44,1.07,3.94,1.78,4.52,1.16.38-.39.27-1.12-.31-2.08a14.39,14.39,0,0,0-6.31-5.07,17.19,17.19,0,0,0-16.71,2c-1.63,1.19-3.18,2.85-3,3.85.07.33.31.57.88.65,1.35.16,6-2.22,11.46-2.55A20,20,0,0,1,144.37,120.37Z"/>
            <path class="color" d="M139.47,123.17a11.47,11.47,0,0,0-6.05,2.52,3.89,3.89,0,0,0-1.55,2.42.73.73,0,0,0,.24.57.78.78,0,0,0,.53.2,9.8,9.8,0,0,0,2.32-.64,20.22,20.22,0,0,1,10.22-1.06c1.6.18,2.35.28,2.7-.27a.91.91,0,0,0-.09-1C147.05,124.69,143.84,122.65,139.47,123.17Z"/>
            <path class="color" d="M163.74,133.44c2.16,1.06,4.53.64,5.3-.93s-.35-3.71-2.5-4.76-4.53-.65-5.3.92S161.59,132.38,163.74,133.44Z"/>
            <path class="color" d="M177.6,121.33c-1.75,0-3.2,1.89-3.25,4.29s1.35,4.38,3.1,4.4,3.21-1.89,3.25-4.29S179.35,121.36,177.6,121.33Z"/>
            <path class="color" d="M60,164.63c-.43-.55-1.15-.38-1.84-.22a6.83,6.83,0,0,1-1.64.23,3.56,3.56,0,0,1-3-1.52c-.8-1.22-.75-3.05.13-5.14l.41-.94c1.41-3.15,3.76-8.42,1.12-13.45A11.94,11.94,0,0,0,46.05,137a11.77,11.77,0,0,0-10,3.62c-3.87,4.28-4.48,10.09-3.73,12.15.28.75.71,1,1,1,.66.09,1.63-.39,2.24-2a5.55,5.55,0,0,0,.18-.54,16.27,16.27,0,0,1,1.61-3.78,6.89,6.89,0,0,1,4.38-3,7.06,7.06,0,0,1,5.37,1,6.89,6.89,0,0,1,2.6,8.28A19.13,19.13,0,0,0,48.31,161c.43,5.22,3.64,7.32,6.53,7.54s4.76-1.47,5.25-2.62A1.11,1.11,0,0,0,60,164.63Z"/>
            <path class="color" d="M221.78,155.09c-.1-.38-.8-2.92-1.75-6a48.41,48.41,0,0,0-1.95-5.21c3.83-5.74,3.9-10.87,3.39-13.77a17.45,17.45,0,0,0-5.06-9.85c-3-3.17-9.2-6.42-17.89-8.86L194,110.15c0-.19-.24-10.75-.43-15.28a52.44,52.44,0,0,0-2-13.42c-1.89-6.82-5.18-12.79-9.29-16.6C193.57,53.08,200.65,40.12,200.63,29c0-21.38-26.29-27.85-58.65-14.45l-6.85,2.91S122.73,5.3,122.55,5.14C85.65-27-29.7,101.18,7.18,132.32l8.06,6.82A39.66,39.66,0,0,0,13,157.44c.86,8.57,5.28,16.78,12.45,23.13,6.8,6,15.74,9.84,24.42,9.83,14.35,33.08,47.14,53.37,85.59,54.51,41.25,1.22,75.87-18.13,90.37-52.89.95-2.44,5-13.44,5-23.14S225.3,155.09,221.78,155.09ZM53,181.12a20.22,20.22,0,0,1-3.82.26c-12.46-.33-25.91-11.55-27.25-24.84-1.48-14.7,6-26,19.33-28.7a22.61,22.61,0,0,1,5.59-.4c7.45.41,18.43,6.13,20.94,22.36C70.05,164.18,66.52,178.82,53,181.12ZM39.13,119.05a31.67,31.67,0,0,0-20,12.78c-2.66-2.23-7.63-6.53-8.51-8.21-7.12-13.53,7.77-39.83,18.18-54.68,25.72-36.7,66-64.48,84.65-59.44,3,.86,13.08,12.5,13.08,12.5A261.83,261.83,0,0,0,90.56,46.76C67.27,64.69,49.67,90.76,39.13,119.05Zm130.75,56.57a.75.75,0,0,0,.43-.73.7.7,0,0,0-.75-.62s-19.52,2.89-37.95-3.86c2-6.52,7.34-4.17,15.41-3.51a112.76,112.76,0,0,0,37.22-4c8.35-2.39,19.32-7.12,27.83-13.84A56.32,56.32,0,0,1,216,162.29,6.47,6.47,0,0,1,220,163c1.76,1.08,3,3.33,2.17,9.14-1.8,10.85-6.41,19.65-14.16,27.75a58.39,58.39,0,0,1-17,12.71,71.93,71.93,0,0,1-11.1,4.69c-29.22,9.54-59.13-.95-68.78-23.48a36.17,36.17,0,0,1-1.93-5.32c-4.11-14.85-.62-32.67,10.28-43.88h0a4,4,0,0,0,1.36-2.62,4.6,4.6,0,0,0-1-2.48c-3.81-5.53-17-15-14.38-33.21,1.91-13.11,13.37-22.34,24.06-21.79l2.71.15c4.63.28,8.67.87,12.49,1,6.38.28,12.12-.65,18.92-6.31,2.29-1.91,4.13-3.57,7.24-4.1a9.5,9.5,0,0,1,7.42,1.22c5.45,3.63,6.22,12.41,6.51,18.83.16,3.67.6,12.54.75,15.09.35,5.83,1.88,6.65,5,7.67,1.74.57,3.36,1,5.74,1.67,7.21,2,11.49,4.08,14.18,6.72a8.88,8.88,0,0,1,2.59,5.07c.85,6.2-4.82,13.87-19.82,20.83-16.4,7.62-36.3,9.54-50.05,8l-4.82-.54c-11-1.48-17.27,12.73-10.67,22.47,4.26,6.27,15.84,10.36,27.44,10.36,26.57,0,47-11.35,54.6-21.15.23-.3.25-.33.61-.87s.07-.87-.4-.55c-6.21,4.24-33.79,21.11-63.28,16a38.94,38.94,0,0,1-6.86-1.87c-2.6-1-8-3.51-8.7-9.09C154.89,182.58,169.88,175.62,169.88,175.62Zm-37.71-4.45h0ZM86.63,68.79C95.78,58.23,107,49,117.12,43.88a.4.4,0,0,1,.53.55,29,29,0,0,0-2.83,6.91.41.41,0,0,0,.63.43c6.27-4.28,17.18-8.86,26.76-9.45a.42.42,0,0,1,.28.75,22.49,22.49,0,0,0-4.21,4.23.41.41,0,0,0,.32.65A52.49,52.49,0,0,1,161,53.81c.42.24.12,1-.35.94a91,91,0,0,0-40.52.11c-14.19,3.46-25,8.8-32.91,14.54A.42.42,0,0,1,86.63,68.79Z"/>
        </g>
    </g>
</svg>