<?xml version="1.0" encoding="utf-8"?>
<!-- Generator: Adobe Illustrator 23.0.1, SVG Export Plug-In . SVG Version: 6.00 Build 0)  -->
<svg version="1.1" id="Layer_1" xmlns="http://www.w3.org/2000/svg" xmlns:xlink="http://www.w3.org/1999/xlink" x="0px" y="0px"
	 viewBox="0 0 24 24" style="enable-background:new 0 0 24 24;" xml:space="preserve">
<style type="text/css">
	.st0{fill:#9699AB;}
	.st1{fill:#FE544B;}
</style>
<title>Group 3 Copy</title>
<desc>Created with Sketch.</desc>
<g id="Page-1">
	<g id="Group-3-Copy">
		<path id="Rectangle" class="st0" d="M21,0c1.7,0,3,1.3,3,3v18c0,1.7-1.3,3-3,3H3c-1.7,0-3-1.3-3-3V3c0-1.7,1.3-3,3-3H21z M21,2H3
			C2.4,2,2,2.4,2,3v18c0,0.6,0.4,1,1,1h18c0.6,0,1-0.4,1-1V3C22,2.4,21.6,2,21,2z"/>
		<path id="Path-3" class="st1" d="M5,6.5h14c0.6,0,1-0.4,1-1s-0.4-1-1-1H5c-0.6,0-1,0.4-1,1S4.4,6.5,5,6.5z"/>
		<path id="Path-3-Copy" class="st1" d="M5,10.5h10.9c0.6,0,1-0.4,1-1c0-0.6-0.4-1-1-1H5c-0.6,0-1,0.4-1,1C4,10.1,4.4,10.5,5,10.5z"
			/>
		<path id="Path-3-Copy-2" class="st1" d="M5,14.5h14c0.6,0,1-0.4,1-1s-0.4-1-1-1H5c-0.6,0-1,0.4-1,1S4.4,14.5,5,14.5z"/>
		<path id="Path-3-Copy-3" class="st1" d="M5,19h9c0.6,0,1-0.4,1-1s-0.4-1-1-1H5c-0.6,0-1,0.4-1,1S4.4,19,5,19z"/>
	</g>
</g>
</svg>
