<?xml version="1.0" encoding="utf-8"?>
<svg version="1.1" id="Layer_1" xmlns="http://www.w3.org/2000/svg" xmlns:xlink="http://www.w3.org/1999/xlink" x="0px" y="0px"
	 viewBox="0 0 105 25" style="enable-background:new 0 0 105 25;" xml:space="preserve">
<g>
	<defs>
		<path id="SVGID_1_" style="fill: #9699ab" d="M78.6,8L78,8c-0.2,0-0.4,0.2-0.4,0.4L77,12l0.9,0l0.1,0c1.3,0,2.6-0.1,2.9-1.9c0.1-0.7,0-1.2-0.3-1.5
			C80.3,8,79.5,8,78.6,8z M37.6,8L37,8c-0.2,0-0.4,0.2-0.4,0.4L36,12l0.9,0c1.4,0,2.7-0.1,3-1.9c0.1-0.7,0-1.2-0.3-1.5
			C39.3,8,38.5,8,37.6,8z M91.4,13c-1.7,0-3.1,1-3.4,2.5c-0.1,0.7,0,1.4,0.5,1.8c0.5,0.5,1.2,0.7,2,0.7c1.7,0,3.1-1,3.4-2.5
			c0.1-0.7,0-1.4-0.5-1.8C93,13.2,92.3,13,91.4,13z M50.4,13c-1.7,0-3.1,1-3.4,2.5l0,0.1c-0.1,0.7,0.1,1.3,0.5,1.8
			c0.5,0.5,1.2,0.7,2,0.7c1.7,0,3.1-1,3.4-2.5c0.1-0.7-0.1-1.4-0.5-1.8C52,13.2,51.3,13,50.4,13z M91.5,10c1.4,0,2.8,0.3,3.4,1.1
			l0.2,0.3l0.1-0.8c0-0.2,0.2-0.4,0.5-0.4h2.9c0.3,0,0.5,0.3,0.5,0.5l-1.5,9.3c-0.1,0.4-0.4,0.7-0.8,0.7h-2.6
			c-0.3,0-0.5-0.3-0.5-0.5l0.1-0.8c0,0-1.4,1.6-4,1.6c-1.5,0-2.7-0.4-3.6-1.4c-0.9-1.1-1.3-2.6-1.1-4.2C85.6,12.3,88.3,10,91.5,10z
			 M49.5,10c1.4,0,2.8,0.3,3.4,1.1l0.2,0.3l0.1-0.8c0-0.2,0.2-0.4,0.5-0.4h2.9c0.3,0,0.5,0.3,0.5,0.5l-1.5,9.3
			c-0.1,0.4-0.4,0.7-0.8,0.7h-2.6c-0.3,0-0.5-0.3-0.5-0.5l0.1-0.8c0,0-1.4,1.6-4,1.6c-1.5,0-2.7-0.4-3.6-1.4
			c-0.9-1.1-1.3-2.6-1.1-4.2C43.6,12.3,46.3,10,49.5,10z M80.9,5c1.9,0,3.4,0.5,4.2,1.5c0.7,0.9,1,2.1,0.7,3.7
			c-0.6,3.6-2.8,5.5-6.6,5.5h-1.8c-0.4,0-0.7,0.3-0.8,0.7L76,20.5c0,0.3-0.3,0.5-0.6,0.5h-3c-0.3,0-0.5-0.3-0.5-0.6l2.3-14.8
			C74.4,5.3,74.7,5,75.1,5H80.9z M38.9,5c1.9,0,3.4,0.5,4.2,1.5c0.7,0.9,1,2.1,0.7,3.7c-0.6,3.6-2.8,5.5-6.6,5.5h-1.8
			c-0.4,0-0.7,0.3-0.8,0.7l-0.6,4C34,20.7,33.6,21,33.2,21h-2.8c-0.3,0-0.5-0.3-0.5-0.6l2.3-14.8C32.4,5.3,32.7,5,33.1,5H38.9z
			 M104.5,5c0.3,0,0.5,0.3,0.5,0.6l-2.3,14.8c-0.1,0.4-0.4,0.7-0.8,0.7h-2.4c-0.3,0-0.5-0.3-0.5-0.6l2.4-15c0-0.2,0.2-0.4,0.5-0.4
			H104.5z M12.3,0C13.7,0,15,0.1,16,0.3c1,0.2,1.9,0.5,2.7,1c0.7,0.5,1.3,1.1,1.7,1.8C20.8,3.8,21,4.8,21,5.9c0,2.5-1.1,4.6-3.2,6.1
			c-2.1,1.6-5.1,2.3-8.8,2.3H8.1c-0.7,0-1.3,0.5-1.5,1.2l-1.1,4.6c-0.1,0.6-0.8,1.2-1.5,1.2l0,0H1c-0.7,0-1.1-0.5-0.9-1.2L4.4,1.2
			C4.6,0.5,5.2,0,5.9,0H12.3z M21.2,3.9L21.4,4c0.8,0.5,1.3,1.1,1.7,1.8c0.4,0.8,0.6,1.7,0.6,2.8c0,2.5-1,4.6-3.2,6.1
			c-2.1,1.5-5.1,2.3-8.8,2.3h-0.9c-0.7,0-1.3,0.5-1.5,1.2l-1.1,4.6C8.1,23.5,7.4,24,6.8,24l0,0H3.6c-0.7,0-1.1-0.5-0.9-1.2l0.1-0.7
			h2.1c0.7,0,1.3-0.5,1.5-1.2l1.1-4.6c0.1-0.6,0.8-1.2,1.5-1.2h0.9c3.8,0,6.7-0.8,8.8-2.3s3.2-3.6,3.2-6.1
			C21.8,5.6,21.6,4.7,21.2,3.9C21.2,3.9,21.2,3.9,21.2,3.9z M61.4,10c0.4,0,0.7,0.2,0.8,0.6l1.7,5.6l4-5.9c0.2-0.2,0.4-0.4,0.7-0.4
			h2.9c0.4,0,0.6,0.5,0.4,0.8l-9.7,13.9c-0.2,0.2-0.4,0.4-0.7,0.4h-2.9c-0.4,0-0.6-0.5-0.4-0.8l3-4.2L58,10.7
			c-0.1-0.3,0.1-0.7,0.5-0.7H61.4z"/>
	</defs>
	<use xlink:href="#SVGID_1_"  style="overflow:visible;"/>
	<clipPath id="SVGID_2_">
		<use xlink:href="#SVGID_1_"  style="overflow:visible;"/>
	</clipPath>
</g>
</svg>
