<?xml version="1.0" encoding="utf-8"?>
<!-- Generator: Adobe Illustrator 23.0.1, SVG Export Plug-In . SVG Version: 6.00 Build 0)  -->
<svg version="1.1" id="Layer_1" xmlns="http://www.w3.org/2000/svg" xmlns:xlink="http://www.w3.org/1999/xlink" x="0px" y="0px"
	 viewBox="0 0 16 24" style="enable-background:new 0 0 16 24;" xml:space="preserve">
<style type="text/css">
	.st0{fill:#9699AB;}
	.st1{fill:#FE544B;}
</style>
<title>Group 2</title>
<desc>Created with Sketch.</desc>
<g id="Page-1">
	<g id="Group-2" transform="translate(1.000000, 1.000000)">
		<path id="Rectangle" class="st0" d="M12-1c1.7,0,3,1.3,3,3v18c0,1.7-1.3,3-3,3H2c-1.7,0-3-1.3-3-3V2c0-1.7,1.3-3,3-3H12z M12,1H2
			C1.4,1,1,1.4,1,2v18c0,0.6,0.4,1,1,1h10c0.6,0,1-0.4,1-1V2C13,1.4,12.6,1,12,1z"/>
		<path id="Path-2" class="st1" d="M4,19h6c0.6,0,1-0.4,1-1s-0.4-1-1-1H4c-0.6,0-1,0.4-1,1S3.4,19,4,19z"/>
	</g>
</g>
</svg>
