<?xml version="1.0" encoding="utf-8"?>
<!-- Generator: Adobe Illustrator 23.0.1, SVG Export Plug-In . SVG Version: 6.00 Build 0)  -->
<svg version="1.1" id="Layer_1" xmlns="http://www.w3.org/2000/svg" xmlns:xlink="http://www.w3.org/1999/xlink" x="0px" y="0px"
	 viewBox="0 0 24 24" style="enable-background:new 0 0 24 24;" xml:space="preserve">
<style type="text/css">
	.st0{fill:#9699AB;}
	.st1{fill:#FE544B;}
</style>
<title>Group</title>
<desc>Created with Sketch.</desc>
<g id="Page-1">
	<g id="Group" transform="translate(2.000000, 2.000000)">
		<path id="Path" class="st0" d="M11-2l8.2,0.1c0.6,0,1.2,0.2,1.7,0.6c0.7,0.5,1,1.3,1,2.1L22,9c0,0.7-0.3,1.4-0.8,2L11,21.2
			c-1.1,1.1-2.8,1.1-3.9,0l-8.3-8.3c-1.1-1.1-1.1-2.8,0-3.9L9-1.2C9.5-1.7,10.2-2,11-2z M10.9,0l-0.1,0c-0.2,0-0.3,0.1-0.4,0.2
			L0.2,10.4l-0.1,0.1c-0.2,0.3-0.2,0.7,0.1,1l8.3,8.3l0.1,0.1c0.3,0.2,0.7,0.2,1-0.1L19.8,9.6l0.1-0.1C20,9.4,20,9.2,20,9.1
			l-0.1-8.2l0-0.1c0-0.2-0.1-0.3-0.3-0.5c-0.1-0.1-0.3-0.2-0.4-0.2L10.9,0z"/>
		<path class="st1" d="M17.6,2.4c-0.6-0.6-1.5-0.6-2.1,0c-0.6,0.6-0.6,1.5,0,2.1c0.6,0.6,1.5,0.6,2.1,0C18.1,4,18.1,3,17.6,2.4z"/>
		<path id="Path-15" class="st1" d="M8.7,16.1l7.4-7.4c0.4-0.4,0.4-1,0-1.4c-0.4-0.4-1-0.4-1.4,0l-7.4,7.4c-0.4,0.4-0.4,1,0,1.4
			C7.7,16.5,8.3,16.5,8.7,16.1z"/>
		<path id="Path-15-Copy" class="st1" d="M5.2,12.5l7.2-7.1c0.4-0.4,0.4-1,0-1.4s-1-0.4-1.4,0l-7.2,7.1c-0.4,0.4-0.4,1,0,1.4
			C4.2,12.9,4.8,12.9,5.2,12.5z"/>
	</g>
</g>
</svg>
