<?xml version="1.0" encoding="utf-8"?>
<!-- Generator: Adobe Illustrator 23.0.1, SVG Export Plug-In . SVG Version: 6.00 Build 0)  -->
<svg version="1.1" id="Layer_1" xmlns="http://www.w3.org/2000/svg" xmlns:xlink="http://www.w3.org/1999/xlink" x="0px" y="0px"
	 viewBox="0 0 25 23" style="enable-background:new 0 0 25 23;" xml:space="preserve">
<style type="text/css">
	.st0{fill:#9699AB;}
	.st1{fill:#FE544B;}
	.st2{fill-rule:evenodd;clip-rule:evenodd;fill:#9699AB;}
</style>
<title>Group 14</title>
<desc>Created with Sketch.</desc>
<g id="Page-1">
	<g id="Group-14" transform="translate(0.187500, 0.148438)">
		<path id="Path-14" class="st0" d="M6.2,16.5c0.1,0.5,0.5,0.8,1,0.8H22c0.6,0,1-0.4,1-1c0-0.6-0.4-1-1-1H8L5.2,0.8
			C5.2,0.3,4.7,0,4.3,0H1C0.4,0,0,0.4,0,1s0.4,1,1,1h2.4L6.2,16.5z"/>
		<path id="Path" class="st1" d="M20.2,10.8H10c-0.6,0-1,0.4-1,1s0.4,1,1,1h10.9c0.4,0,0.8-0.3,1-0.7l2.6-8.9c0.2-0.6-0.3-1.3-1-1.3
			H8.8c-0.6,0-1,0.4-1,1s0.4,1,1,1h13.3L20.2,10.8z"/>
		<circle id="Oval" class="st2" cx="8.8" cy="20.9" r="2"/>
		<circle id="Oval-Copy-2" class="st2" cx="19.8" cy="20.9" r="2"/>
	</g>
</g>
</svg>
