<?xml version="1.0" encoding="utf-8"?>
<!-- Generator: Adobe Illustrator 23.0.1, SVG Export Plug-In . SVG Version: 6.00 Build 0)  -->
<svg version="1.1" id="Layer_1" xmlns="http://www.w3.org/2000/svg" xmlns:xlink="http://www.w3.org/1999/xlink" x="0px" y="0px"
	 viewBox="0 0 26 25" style="enable-background:new 0 0 26 25;" xml:space="preserve">
<style type="text/css">
	.st0{fill:#FE544B;}
	.st1{fill:#9699AB;}
</style>
<title>Shape 2 Copy 2</title>
<desc>Created with Sketch.</desc>
<g id="Page-1">
	<g id="Shape-2-Copy-2" transform="translate(1.000000, 1.000000)">
		<path id="Path" class="st0" d="M11.6,5c2.5,0,4.3,1.8,4.3,4.5c0,2.8-1.9,5-4.3,5c-2.4,0-4.3-2.2-4.3-5C7.3,6.8,9.1,5,11.6,5z
			 M11.6,7c-1.4,0-2.3,0.9-2.3,2.5c0,1.7,1.1,3,2.3,3c1.2,0,2.3-1.3,2.3-3C13.9,7.9,13,7,11.6,7z"/>
		<path class="st0" d="M11.7,15.6c4.5,0,7.1,1.7,7.6,4.7l0,0.2l0,1.2l0,0c-2.1,1.5-4.6,2.3-7.4,2.4l-0.3,0c-2.8,0-5.3-0.7-7.5-2.2
			l-0.3-0.2l0,0v0l0,0l0,0l0-1.2l0,0c0.3-3.1,2.9-4.8,7.3-4.9L11.7,15.6z M11.3,17.6c-3.4,0.1-5.1,1.1-5.4,3c1.6,1,3.5,1.4,5.7,1.4
			l0.3,0c2,0,3.8-0.5,5.4-1.5l0,0c-0.3-1.8-1.9-2.9-5.3-3l-0.3,0L11.3,17.6z"/>
		<path class="st1" d="M22,18.8c1.4-2.1,2.2-4.6,2.2-7.2c0-7-5.6-12.6-12.6-12.6S-1,4.6-1,11.6c0,2.6,0.8,5.1,2.2,7.2
			c0.3,0.5,0.9,0.6,1.4,0.3s0.6-0.9,0.3-1.4c-1.2-1.8-1.9-3.8-1.9-6C1,5.8,5.8,1,11.6,1s10.6,4.8,10.6,10.6c0,2.2-0.7,4.3-1.9,6
			c-0.3,0.5-0.2,1.1,0.3,1.4C21.1,19.3,21.7,19.2,22,18.8z"/>
	</g>
</g>
</svg>
