<?xml version="1.0" encoding="utf-8"?>
<!-- Generator: Adobe Illustrator 23.0.1, SVG Export Plug-In . SVG Version: 6.00 Build 0)  -->
<svg version="1.1" id="Layer_1" xmlns="http://www.w3.org/2000/svg" xmlns:xlink="http://www.w3.org/1999/xlink" x="0px" y="0px"
	 viewBox="0 0 31 23" style="enable-background:new 0 0 31 23;" xml:space="preserve">
<style type="text/css">
	.st0{fill:#FE544B;}
	.st1{fill:#9699AB;}
</style>
<title>Group 7</title>
<desc>Created with Sketch.</desc>
<g id="Page-1">
	<g id="Group-7" transform="translate(1.284668, 1.294979)">
		<path id="Path-4" class="st0" d="M9.9,5.9c0.6-3.4,0.2-5.5-1-6.4c-1-0.7-2.3-0.5-3.5,0.2C2.5,1.1,1,5.4,2.8,11.7
			c0.2,0.9,0.6,1.6,1,2.2c-0.6,0.5-1.2,0.8-1.8,0.8c-0.6,0-0.9-0.4-1-1.8c-0.1-0.5-0.6-0.9-1.1-0.9s-0.9,0.6-0.9,1.1
			c0.2,2.2,1.3,3.6,3,3.6c1,0,2.1-0.5,3.2-1.5c1.2,0.7,2.8,0.5,4.4-0.3c1.1-0.6,2.2-1.5,3-2.5l0,0.1c0.3,1.1,0.7,1.9,1.3,2.5
			c0.8,0.9,1.9,1.2,3,0.5c1.3-0.7,2.3-1.7,3.2-2.9c0.7,1.5,1.9,2.5,3.7,3c3,0.8,4.9-0.7,5.5-4.1c0.1-0.5-0.3-1.1-0.8-1.2
			c-0.5-0.1-1.1,0.3-1.2,0.8c-0.4,2.3-1.3,3-3,2.5c-1.9-0.5-2.8-1.8-2.9-4c0-1.1-1.6-1.4-1.9-0.3c-0.7,2-1.9,3.4-3.6,4.4
			c-0.2,0.1-0.3,0.1-0.5-0.1c-0.3-0.3-0.6-1-0.8-1.8c-0.2-0.6-0.3-1.1-0.4-1.8L14,9.4l0-0.1c0,0,0-0.1,0-0.1L13.8,9l0-0.1
			c0,0-0.1-0.1-0.2-0.2l-0.2-0.1C13,8.4,13,8.4,12.3,8.8l-0.1,0.2L12,9.1c0,0,0,0.1-0.1,0.1l0,0.2l0,0c0,0.1,0,0.2,0,0.4
			c0,0.6-1.7,2.5-3.3,3.4c-0.7,0.4-1.3,0.5-1.8,0.5l-0.2,0C8.1,11.7,9.4,9,9.9,5.9z M4.7,11.1C3.2,5.7,4.4,2.4,6.3,1.4
			C6.9,1,7.5,0.9,7.7,1.1c0.5,0.3,0.7,1.7,0.2,4.5c-0.4,2.7-1.4,4.9-2.5,6.5l-0.2,0.3C5,12,4.9,11.6,4.7,11.1z"/>
		<path id="Path-5" class="st1" d="M0,21.7h28.3c0.6,0,1-0.4,1-1s-0.4-1-1-1H0c-0.6,0-1,0.4-1,1S-0.6,21.7,0,21.7z"/>
	</g>
</g>
</svg>
