<?xml version="1.0" encoding="utf-8"?>
<!-- Generator: Adobe Illustrator 23.0.1, SVG Export Plug-In . SVG Version: 6.00 Build 0)  -->
<svg version="1.1" id="Layer_1" xmlns="http://www.w3.org/2000/svg" xmlns:xlink="http://www.w3.org/1999/xlink" x="0px" y="0px"
	 viewBox="0 0 24 25" style="enable-background:new 0 0 24 25;" xml:space="preserve">
<style type="text/css">
	.st0{fill:#FE544B;}
	.st1{fill:#9699AB;}
</style>
<title>Group 12</title>
<desc>Created with Sketch.</desc>
<g id="Page-1">
	<g id="Group-12">
		<path id="Path" class="st0" d="M6.8,17C2.7,17.6,0,18.8,0,20.7c0,2.6,5.3,4,12,4l0.7,0l0.7,0c6-0.2,10.6-1.6,10.6-4
			c0-1.9-2.7-3.1-6.9-3.7c-0.5-0.1-1.1,0.3-1.1,0.9c-0.1,0.5,0.3,1.1,0.9,1.1c1.7,0.2,3.1,0.6,4.1,1c0.4,0.2,0.8,0.4,0.9,0.6
			l0.1,0.1l0,0c0,0.8-4.5,2-10,2l-0.7,0l-0.7,0c-4.8-0.2-8.7-1.3-8.7-2c0,0,0,0,0.1-0.1c0.2-0.2,0.5-0.4,0.9-0.6c1-0.4,2.4-0.8,4-1
			c0.5-0.1,0.9-0.6,0.9-1.1S7.4,16.9,6.8,17z"/>
		<path class="st1" d="M12,0c4.4,0,8,3.6,8,8c0,2.4-0.9,4.1-2.7,6.3l-0.5,0.5c-0.7,0.7-1.7,1.8-2.1,2.2l-0.4,0.5
			c-0.5,0.6-1,1.2-1.4,1.8c-0.4,0.6-1.2,0.6-1.6,0c-0.4-0.6-0.9-1.2-1.4-1.8l-0.3-0.4c-0.3-0.4-1.5-1.6-2.2-2.3l-0.5-0.5
			C4.9,12.1,4,10.4,4,8C4,3.6,7.6,0,12,0z M12.3,16.7c0.2-0.2,0.4-0.4,0.5-0.6l0.4-0.4l2.4-2.6c0.1-0.1,0.1-0.2,0.2-0.2l0.2-0.3
			c1.4-1.7,2-2.9,2-4.7c0-3.3-2.7-6-6-6S6,4.7,6,8c0,1.7,0.6,3,2,4.7L8.3,13L9.2,14c0.7,0.7,1.4,1.5,1.7,1.8l0.3,0.3
			c0.2,0.2,0.4,0.4,0.5,0.6l0.3,0.3L12.3,16.7z"/>
		<path id="Oval" class="st0" d="M12,5c1.7,0,3,1.3,3,3s-1.3,3-3,3S9,9.7,9,8S10.3,5,12,5z M12,7c-0.6,0-1,0.4-1,1s0.4,1,1,1
			s1-0.4,1-1S12.6,7,12,7z"/>
	</g>
</g>
</svg>
