<?xml version="1.0" encoding="utf-8"?>
<!-- Generator: Adobe Illustrator 23.0.1, SVG Export Plug-In . SVG Version: 6.00 Build 0)  -->
<svg version="1.1" id="Layer_1" xmlns="http://www.w3.org/2000/svg" xmlns:xlink="http://www.w3.org/1999/xlink" x="0px" y="0px"
	 viewBox="0 0 25 25" style="enable-background:new 0 0 25 25;" xml:space="preserve">
<style type="text/css">
	.st0{fill:#9699AB;}
	.st1{fill:#FE544B;}
</style>
<title>Group 3 Copy 6</title>
<desc>Created with Sketch.</desc>
<g id="Page-1">
	<g id="Group-3-Copy-6">
		<path id="Rectangle" class="st0" d="M21,0c2.2,0,4,1.8,4,4v17c0,2.2-1.8,4-4,4H4c-2.2,0-4-1.8-4-4V4c0-2.2,1.8-4,4-4H21z M21,2H4
			C2.9,2,2,2.9,2,4v17c0,1.1,0.9,2,2,2h17c1.1,0,2-0.9,2-2V4C23,2.9,22.1,2,21,2z"/>
		<path id="Path" class="st1" d="M18,7.8c0-0.3-0.1-0.5-0.3-0.7C17.5,7,17.2,6.9,17,6.9l-5,0c-0.5,0.1-0.9,0.5-0.9,1s0.4,0.9,0.9,1
			l2.6,0l-7.3,7.3C7,16.3,6.9,16.7,7,17c0.1,0.4,0.4,0.6,0.7,0.7c0.4,0.1,0.7,0,1-0.3l7.3-7.3l0,2.6c0,0.5,0.4,1,0.9,1
			c0.5,0,1-0.4,1-0.9L18,7.8z"/>
	</g>
</g>
</svg>
