<?xml version="1.0" encoding="utf-8"?>
<!-- Generator: Adobe Illustrator 23.0.1, SVG Export Plug-In . SVG Version: 6.00 Build 0)  -->
<svg version="1.1" id="Layer_1" xmlns="http://www.w3.org/2000/svg" xmlns:xlink="http://www.w3.org/1999/xlink" x="0px" y="0px"
	 viewBox="0 0 24 23" style="enable-background:new 0 0 24 23;" xml:space="preserve">
<style type="text/css">
	.st0{fill:#9699AB;}
	.st1{fill-rule:evenodd;clip-rule:evenodd;fill:#FE544B;}
</style>
<title>Group 16</title>
<desc>Created with Sketch.</desc>
<g id="Page-1">
	<g id="Group-16">
		<path id="Path" class="st0" d="M12.1,0l0.3,0c0.4,0,0.8,0,1.2,0.1c3.9,0.6,7,4.1,7.1,8.1l0,0.3v7.1c0,1.8,0.5,1.9,1.2,1.9H24V19H0
			v-1.5l2.3,0c0.7,0,1.1-0.2,1.2-1.7l0-0.2V8.5c0-4.1,3-7.8,7.1-8.4C11,0,11.4,0,11.8,0h0.6L12.1,0z M12.4,2l-0.5,0l-0.3,0l-0.2,0
			c-0.1,0-0.1,0-0.2,0l-0.3,0.1C7.8,2.5,5.5,5.3,5.5,8.5v7.1c0,0.5,0,1-0.1,1.4h13.4c-0.1-0.4-0.1-0.9-0.1-1.4V8.5
			c0-3.1-2.4-6-5.4-6.4L13,2C12.8,2,12.6,2,12.4,2z"/>
		<path id="Rectangle" class="st1" d="M9,21h6c0.6,0,1,0.4,1,1l0,0c0,0.6-0.4,1-1,1H9c-0.6,0-1-0.4-1-1l0,0C8,21.4,8.4,21,9,21z"/>
	</g>
</g>
</svg>
