<?xml version="1.0" encoding="utf-8"?>
<!-- Generator: Adobe Illustrator 23.0.1, SVG Export Plug-In . SVG Version: 6.00 Build 0)  -->
<svg version="1.1" id="Layer_1" xmlns="http://www.w3.org/2000/svg" xmlns:xlink="http://www.w3.org/1999/xlink" x="0px" y="0px"
	 viewBox="0 0 24 23" style="enable-background:new 0 0 24 23;" xml:space="preserve">
<style type="text/css">
	.st0{fill-rule:evenodd;clip-rule:evenodd;fill:#FE544B;}
	.st1{fill-rule:evenodd;clip-rule:evenodd;fill:#9699AB;}
</style>
<title>Group</title>
<desc>Created with Sketch.</desc>
<g id="Page-1">
	<g id="Group">
		<path id="Rectangle-Copy-7" class="st0" d="M1,0h13c0.6,0,1,0.4,1,1s-0.4,1-1,1H1C0.4,2,0,1.6,0,1S0.4,0,1,0z"/>
		<path id="Rectangle" class="st1" d="M1,7h22c0.6,0,1,0.4,1,1s-0.4,1-1,1H1C0.4,9,0,8.6,0,8S0.4,7,1,7z"/>
		<path id="Rectangle-Copy-5" class="st1" d="M1,14h22c0.6,0,1,0.4,1,1s-0.4,1-1,1H1c-0.6,0-1-0.4-1-1S0.4,14,1,14z"/>
		<path id="Rectangle-Copy-6" class="st1" d="M1,21h22c0.6,0,1,0.4,1,1s-0.4,1-1,1H1c-0.6,0-1-0.4-1-1S0.4,21,1,21z"/>
	</g>
</g>
</svg>
