<?xml version="1.0" encoding="utf-8"?>
<!-- Generator: Adobe Illustrator 23.0.1, SVG Export Plug-In . SVG Version: 6.00 Build 0)  -->
<svg version="1.1" id="Layer_1" xmlns="http://www.w3.org/2000/svg" xmlns:xlink="http://www.w3.org/1999/xlink" x="0px" y="0px"
	 viewBox="0 0 57 26" style="enable-background:new 0 0 57 26;" xml:space="preserve">
	<style type="text/css">
        .color{fill: #9699ab;}
    </style>
<g>
	<defs>
		<path id="SVGID_1_" class="color" d="M21.5,9.6c0.1,0,0.3-0.1,0.4-0.1c0.2,0,0.3,0,0.5,0c0.1,0,0.3,0,0.5,0c0.2,0,0.3,0,0.5,0.1
			c0,0,0,0.1,0.1,0.3c0,0.2,0,0.3,0.1,0.5c0,0.2,0,0.3,0.1,0.5c0,0.2,0,0.3,0,0.3c0.1-0.2,0.3-0.5,0.5-0.7c0.2-0.2,0.4-0.4,0.7-0.6
			c0.3-0.2,0.6-0.3,1-0.4c0.4-0.1,0.8-0.2,1.2-0.2c0.7,0,1.3,0.1,1.8,0.3c0.6,0.2,1,0.6,1.4,1c0.4,0.5,0.7,1,0.9,1.7
			c0.2,0.7,0.3,1.5,0.3,2.5c0,1.9-0.5,3.4-1.6,4.5c-1,1.1-2.5,1.6-4.4,1.6c-0.3,0-0.6,0-1-0.1c-0.3,0-0.6-0.1-0.9-0.2v5.1
			c-0.2,0-0.4,0.1-0.6,0.1c-0.2,0-0.4,0-0.5,0c-0.2,0-0.4,0-0.5,0c-0.2,0-0.4,0-0.5-0.1L21.5,9.6L21.5,9.6z M23.7,18.9
			c0.3,0.1,0.6,0.2,0.9,0.2c0.3,0,0.7,0.1,1.1,0.1c0.5,0,1-0.1,1.4-0.3c0.4-0.2,0.8-0.4,1.1-0.8c0.3-0.3,0.6-0.8,0.7-1.3
			c0.2-0.5,0.3-1.2,0.3-1.9c0-1.2-0.2-2.1-0.6-2.8c-0.4-0.7-1.1-1-2.1-1c-0.4,0-0.7,0.1-1,0.2c-0.3,0.1-0.6,0.3-0.9,0.6
			c-0.3,0.3-0.5,0.6-0.6,1c-0.2,0.4-0.2,0.9-0.2,1.4L23.7,18.9L23.7,18.9L23.7,18.9z M17,13.4c0-0.9-0.2-1.5-0.7-1.8
			c-0.4-0.3-1.1-0.5-1.9-0.5c-0.5,0-1,0-1.4,0.1c-0.4,0.1-0.9,0.2-1.3,0.3c-0.3-0.5-0.4-1.1-0.4-1.7c0.5-0.2,1-0.3,1.6-0.4
			c0.6-0.1,1.2-0.1,1.7-0.1c1.5,0,2.6,0.3,3.3,1c0.8,0.7,1.1,1.7,1.1,3.2v7c-0.5,0.1-1.1,0.2-1.9,0.4C16.6,21,15.8,21,15.1,21
			c-0.7,0-1.4-0.1-1.9-0.2c-0.6-0.1-1.1-0.3-1.5-0.6c-0.4-0.3-0.7-0.7-0.9-1.1c-0.2-0.5-0.3-1-0.3-1.6c0-0.6,0.1-1.2,0.4-1.6
			c0.3-0.5,0.6-0.9,1-1.2c0.4-0.3,0.9-0.5,1.5-0.7c0.6-0.2,1.2-0.2,1.8-0.2c0.5,0,0.8,0,1.1,0c0.3,0,0.5,0,0.8,0.1L17,13.4L17,13.4z
			 M17,15.5c-0.2,0-0.5-0.1-0.8-0.1c-0.3,0-0.6,0-0.9,0c-0.9,0-1.6,0.2-2.1,0.5c-0.5,0.3-0.7,0.8-0.7,1.5c0,0.4,0.1,0.8,0.2,1
			c0.2,0.2,0.4,0.4,0.6,0.6c0.2,0.1,0.5,0.2,0.8,0.2c0.3,0,0.6,0,0.8,0c0.3,0,0.7,0,1-0.1c0.4,0,0.7-0.1,1-0.2L17,15.5L17,15.5z
			 M0,20.5l5.9-9.2H0.7c0-0.3-0.1-0.6-0.1-0.9c0-0.3,0-0.6,0.1-0.9h8.4l0.1,0.3L3.3,19h5.6c0,0.3,0.1,0.6,0.1,0.9
			c0,0.3,0,0.6-0.1,0.8H0.1L0,20.5L0,20.5z M38.4,3h-2.1l1.5-1.5c-0.2-0.3-0.5-0.6-0.9-0.9l-1.5,1.5V0.1C35.2,0,35,0,34.8,0h0
			c-0.2,0-0.4,0-0.6,0.1v2.1l-1.5-1.5c-0.2,0.1-0.3,0.2-0.5,0.4l0,0c-0.1,0.1-0.3,0.3-0.4,0.5L33.3,3h-2.1c0,0-0.1,0.4-0.1,0.6v0
			c0,0.2,0,0.4,0.1,0.6h2.1l-1.5,1.5c0.2,0.3,0.5,0.6,0.9,0.9l1.5-1.5v2.1c0.2,0,0.4,0.1,0.6,0.1h0c0.2,0,0.4,0,0.6-0.1V5.1l1.5,1.5
			c0.2-0.1,0.3-0.2,0.5-0.4h0c0.1-0.1,0.3-0.3,0.4-0.5l-1.5-1.5h2.1c0-0.2,0.1-0.4,0.1-0.6v0C38.4,3.4,38.4,3.2,38.4,3L38.4,3
			L38.4,3z M35.7,3.6c0,0.3,0,0.5-0.1,0.8c-0.2,0.1-0.5,0.1-0.8,0.1h0c-0.3,0-0.5,0-0.8-0.1c-0.1-0.2-0.1-0.5-0.1-0.8v0
			c0-0.3,0-0.5,0.1-0.8c0.2-0.1,0.5-0.1,0.8-0.1h0c0.3,0,0.5,0,0.8,0.1C35.7,3.1,35.7,3.4,35.7,3.6L35.7,3.6L35.7,3.6L35.7,3.6z
			 M51.1,9.6c0.2,0,0.3,0,0.5-0.1c0.1,0,0.3,0,0.5,0s0.3,0,0.5,0c0.2,0,0.3,0,0.4,0.1c0,0.2,0.1,0.5,0.1,0.9c0,0.4,0.1,0.7,0.1,0.9
			c0.3-0.5,0.7-0.9,1.2-1.3c0.5-0.4,1.1-0.5,1.9-0.5c0.1,0,0.2,0,0.4,0c0.1,0,0.2,0,0.3,0c0,0.1,0.1,0.3,0.1,0.4c0,0.1,0,0.3,0,0.5
			c0,0.2,0,0.4,0,0.5c0,0.2,0,0.4-0.1,0.5c-0.1,0-0.2,0-0.4,0h-0.3c-0.4,0-0.8,0.1-1.1,0.2c-0.4,0.1-0.7,0.3-1,0.6
			c-0.3,0.3-0.5,0.7-0.7,1.1c-0.2,0.5-0.3,1.1-0.3,1.9v5.6c-0.2,0-0.4,0.1-0.5,0.1c-0.2,0-0.4,0-0.5,0c-0.2,0-0.4,0-0.5,0
			c-0.2,0-0.4,0-0.6-0.1L51.1,9.6L51.1,9.6z M41,15.7c0,1.2,0.3,2.1,1,2.7c0.6,0.6,1.5,0.9,2.7,0.9c1,0,2-0.2,3-0.5
			c0.1,0.2,0.2,0.5,0.3,0.8c0.1,0.3,0.1,0.6,0.1,0.9c-0.5,0.2-1,0.4-1.6,0.5C45.8,21,45.2,21,44.5,21c-1,0-1.9-0.1-2.6-0.4
			c-0.7-0.3-1.3-0.7-1.8-1.2c-0.5-0.5-0.8-1.1-1-1.8c-0.2-0.7-0.3-1.5-0.3-2.3c0-0.8,0.1-1.6,0.3-2.3c0.2-0.7,0.5-1.3,1-1.9
			c0.4-0.5,1-1,1.7-1.3c0.7-0.3,1.4-0.5,2.3-0.5c0.8,0,1.4,0.1,2,0.4c0.6,0.3,1.1,0.6,1.5,1.1c0.4,0.5,0.7,1,0.9,1.6
			c0.2,0.6,0.3,1.3,0.3,2.1c0,0.2,0,0.4,0,0.6c0,0.2,0,0.4,0,0.6L41,15.7L41,15.7L41,15.7z M46.5,14.1c0-0.4-0.1-0.8-0.2-1.2
			c-0.1-0.4-0.3-0.7-0.5-1c-0.2-0.3-0.5-0.5-0.8-0.7c-0.3-0.2-0.7-0.3-1.2-0.3c-0.9,0-1.6,0.3-2,0.8c-0.5,0.5-0.8,1.3-0.9,2.2H46.5
			L46.5,14.1z M34.2,11.3h-1.4c0-0.1-0.1-0.3-0.1-0.4c0-0.3,0-0.6,0-0.9c0-0.2,0-0.3,0.1-0.4h3.5v11.2c-0.2,0-0.4,0.1-0.5,0.1
			c-0.2,0-0.4,0-0.5,0c-0.2,0-0.3,0-0.5,0c-0.2,0-0.4,0-0.5-0.1L34.2,11.3L34.2,11.3L34.2,11.3z"/>
	</defs>
	<use xlink:href="#SVGID_1_"  style="overflow:visible;"/>
	<clipPath id="SVGID_2_">
		<use xlink:href="#SVGID_1_"  style="overflow:visible;"/>
	</clipPath>
</g>
</svg>
