<?xml version="1.0" encoding="utf-8"?>
<!-- Generator: Adobe Illustrator 23.0.1, SVG Export Plug-In . SVG Version: 6.00 Build 0)  -->
<svg version="1.1" id="Layer_1" xmlns="http://www.w3.org/2000/svg" xmlns:xlink="http://www.w3.org/1999/xlink" x="0px" y="0px"
	 viewBox="0 0 33 23" style="enable-background:new 0 0 33 23;" xml:space="preserve">
<style type="text/css">
	.st0{fill:#9699AB;}
	.st1{fill-rule:evenodd;clip-rule:evenodd;fill:#9699AB;}
	.st2{fill-rule:evenodd;clip-rule:evenodd;fill:#FE544B;}
	.st3{fill:#FE544B;}
</style>
<title>Group</title>
<desc>Created with Sketch.</desc>
<g id="Page-1">
	<g id="Group">
		<path id="Path" class="st0" d="M2,22V12c0-2.8,2.2-5,5-5s5,2.2,5,5v10c0,0.6,0.4,1,1,1s1-0.4,1-1V12c0-3.9-3.1-7-7-7s-7,3.1-7,7
			v10c0,0.6,0.4,1,1,1S2,22.6,2,22z"/>
		<path id="Shape" class="st0" d="M28,11c0.5,0,0.9,0.4,1,0.9l0,0.1v10c0,0.6-0.4,1-1,1c-0.5,0-0.9-0.4-1-0.9l0-0.1V12
			C27,11.4,27.4,11,28,11z M7,5h11.1c0.6,0,1,0.4,1,1c0,0.5-0.4,0.9-0.9,1l-0.1,0H7C6.4,7,6,6.6,6,6c0-0.5,0.4-0.9,0.9-1L7,5h11.1H7
			z"/>
		<path id="Rectangle" class="st1" d="M1,21h27c0.6,0,1,0.4,1,1s-0.4,1-1,1H1c-0.6,0-1-0.4-1-1S0.4,21,1,21z"/>
		<circle id="Oval" class="st2" cx="21.5" cy="14.5" r="1.5"/>
		<path class="st2" d="M5,14h4c0.6,0,1,0.4,1,1l0,0c0,0.6-0.4,1-1,1H5c-0.6,0-1-0.4-1-1l0,0C4,14.4,4.4,14,5,14z"/>
		<path id="Path-9" class="st3" d="M22.5,14.4V1.8c0-0.6-0.4-1-1-1s-1,0.4-1,1v12.6c0,0.6,0.4,1,1,1S22.5,15,22.5,14.4z"/>
		<path class="st3" d="M31,1c1.1,0,2,0.9,2,2v4c0,1.1-0.9,2-2,2h-8c-1.1,0-2-0.9-2-2V3c0-1.1,0.9-2,2-2H31z M23,3v4h8V3H23z"/>
	</g>
</g>
</svg>
