<?xml version="1.0" encoding="utf-8"?>
<!-- Generator: Adobe Illustrator 21.1.0, SVG Export Plug-In . SVG Version: 6.00 Build 0)  -->
<svg version="1.1" id="Layer_1" xmlns="http://www.w3.org/2000/svg" xmlns:xlink="http://www.w3.org/1999/xlink" x="0px" y="0px"
	 viewBox="0 0 79 79" style="enable-background:new 0 0 79 79;" xml:space="preserve">
<style type="text/css">
	.st0{fill:#FFFFFF;}
</style>
<g>
	<g>
		<path id="SVGID_1_" class="st0" d="M53.9,35.9H43.1V25.1c0-2-1.6-3.6-3.6-3.6s-3.6,1.6-3.6,3.6v10.8H25.1c-2,0-3.6,1.6-3.6,3.6
			s1.6,3.6,3.6,3.6h10.8v10.8c0,2,1.6,3.6,3.6,3.6s3.6-1.6,3.6-3.6V43.1h10.8c2,0,3.6-1.6,3.6-3.6S55.8,35.9,53.9,35.9z M39.5,79
			C17.7,79,0,61.3,0,39.5S17.7,0,39.5,0S79,17.7,79,39.5S61.3,79,39.5,79z"/>
	</g>
</g>
</svg>
