<?xml version="1.0" encoding="utf-8"?>
<!-- Generator: Adobe Illustrator 23.0.1, SVG Export Plug-In . SVG Version: 6.00 Build 0)  -->
<svg version="1.1" id="Layer_1" xmlns="http://www.w3.org/2000/svg" xmlns:xlink="http://www.w3.org/1999/xlink" x="0px" y="0px"
	 viewBox="0 0 10 13" style="enable-background:new 0 0 10 13;" xml:space="preserve">
	<style type="text/css">
		.st0{fill:#9699ab;}
	</style>
<g>
	<defs>
		<path id="SVGID_1_" class="st0" d="M6.1,1.1c0-0.3,0.4-0.5,0.7-0.3l2.5,2.5c0.2,0.2,0,0.6-0.3,0.6H6.5c-0.2,0-0.4-0.2-0.4-0.4V1.1z M4.4,0.7
			C4.7,0.7,5,1,5,1.3v3c0,0.4,0.3,0.6,0.6,0.6h3.1c0.3,0,0.6,0.3,0.6,0.6v6.9C9.3,12.7,9,13,8.7,13H1c-0.3,0-0.6-0.3-0.6-0.5V1.3
			C0.4,1,0.7,0.7,1,0.7H4.4z"/>
	</defs>
	<use xlink:href="#SVGID_1_"  style="overflow:visible;"/>
	<clipPath id="SVGID_2_">
		<use xlink:href="#SVGID_1_"  style="overflow:visible;"/>
	</clipPath>
</g>
</svg>
