<?xml version="1.0" encoding="utf-8"?>
<!-- Generator: Adobe Illustrator 23.0.1, SVG Export Plug-In . SVG Version: 6.00 Build 0)  -->
<svg version="1.1" id="Layer_1" xmlns="http://www.w3.org/2000/svg" xmlns:xlink="http://www.w3.org/1999/xlink" x="0px" y="0px"
	 viewBox="0 0 18 18" style="enable-background:new 0 0 18 18;" xml:space="preserve">
<g>
	<defs>
		<path id="SVGID_1_" style="fill: #9699ab" d="M11.3,6.2l0.5,0.5c0.3,0.3,0.3,0.7,0,0.9L10.4,9l1.4,1.4c0.3,0.3,0.3,0.7,0,0.9l-0.5,0.5
			c-0.3,0.3-0.7,0.3-0.9,0L9,10.4l-1.4,1.4c-0.3,0.3-0.7,0.3-0.9,0l-0.5-0.5c-0.3-0.3-0.3-0.7,0-0.9L7.6,9L6.2,7.6
			c-0.3-0.3-0.3-0.7,0-0.9l0.5-0.5c0.3-0.3,0.7-0.3,0.9,0L9,7.6l1.4-1.4C10.7,5.9,11.1,5.9,11.3,6.2z M9,2C5.1,2,2,5.1,2,9
			c0,3.9,3.1,7,7,7c3.9,0,7-3.1,7-7C16,5.1,12.9,2,9,2z M9,0c5,0,9,4,9,9s-4,9-9,9s-9-4-9-9S4,0,9,0z"/>
	</defs>
	<use xlink:href="#SVGID_1_"  style="overflow:visible;"/>
	<clipPath id="SVGID_2_">
		<use xlink:href="#SVGID_1_"  style="overflow:visible;"/>
	</clipPath>
</g>
</svg>
