<?xml version="1.0" encoding="utf-8"?>
<!-- Generator: Adobe Illustrator 23.0.1, SVG Export Plug-In . SVG Version: 6.00 Build 0)  -->
<svg version="1.1" id="Layer_1" xmlns="http://www.w3.org/2000/svg" xmlns:xlink="http://www.w3.org/1999/xlink" x="0px" y="0px"
	 viewBox="0 0 24 24" style="enable-background:new 0 0 24 24;" xml:space="preserve">
<style type="text/css">
	.st0{fill:#8a8e9d;}
	.st1{fill:#8a8e9d;}
</style>
<title>Group 4</title>
<desc>Created with Sketch.</desc>
<g id="Page-1">
	<g id="Group-4">
		<path id="Path" class="st0" d="M11,14.4c0.2,0.2,0.4,0.3,0.7,0.3s0.5-0.1,0.7-0.3l3.6-3.6c0.3-0.4,0.3-1-0.1-1.3
			c-0.4-0.4-0.9-0.4-1.3-0.1l-1.8,1.9V1.1c0-0.4-0.1-0.7-0.5-0.9s-0.7-0.2-1,0s-0.5,0.6-0.5,0.9v10.3L8.9,9.5
			c-0.4-0.4-1-0.4-1.4-0.1c-0.4,0.4-0.4,1-0.1,1.4L11,14.4z"/>
		<path class="st1" d="M22.6,7.5c-0.8-2.1-2.2-3.9-4-5.2c-0.4-0.2-1-0.1-1.3,0.3c-0.3,0.4-0.2,1,0.1,1.3c3.4,2.5,4.9,6.9,3.6,10.9
			s-5.1,6.7-9.3,6.7c-4.2,0-8-2.8-9.2-6.8S2.6,6.3,6.1,3.8C6.3,3.6,6.5,3.3,6.5,3c0-0.3-0.3-0.6-0.6-0.8C5.6,2,5.2,2.1,4.9,2.3
			C0.8,5.2-1,10.5,0.6,15.3s6,8.1,11.1,8.2h0.5c3.8-0.2,7.3-2.1,9.3-5.3S24,11,22.6,7.5z"/>
	</g>
</g>
</svg>
