<?xml version="1.0" encoding="utf-8"?>
<!-- Generator: Adobe Illustrator 23.0.1, SVG Export Plug-In . SVG Version: 6.00 Build 0)  -->
<svg version="1.1" id="Layer_1" xmlns="http://www.w3.org/2000/svg" xmlns:xlink="http://www.w3.org/1999/xlink" x="0px" y="0px"
	 viewBox="0 0 18 18" style="enable-background:new 0 0 18 18;" xml:space="preserve">
<g>
	<defs>
		<path id="SVGID_1_" style="fill:#9699ab" d="M3.2,16.1H9c0.7,0,1.3-0.6,1.3-1.3h1.9c0,1.8-1.4,3.2-3.2,3.2H3.2C1.4,18,0,16.6,0,14.8V9
			c0-1.8,1.4-3.2,3.2-3.2v2C2.5,7.7,1.9,8.3,1.9,9v5.8C1.9,15.5,2.5,16.1,3.2,16.1z M14.1,7.7h-1.9v1.9c0,0.4-0.3,0.6-0.6,0.6h-0.6
			c-0.4,0-0.6-0.3-0.6-0.6V7.7H8.3C8,7.7,7.7,7.4,7.7,7.1V6.4c0-0.4,0.3-0.6,0.6-0.6h1.9V3.9c0-0.4,0.3-0.6,0.6-0.6h0.6
			c0.4,0,0.6,0.3,0.6,0.6v1.9h1.9c0.4,0,0.6,0.3,0.6,0.6v0.7C14.8,7.4,14.5,7.7,14.1,7.7z M16.1,3.2c0-0.7-0.6-1.3-1.3-1.3H7.7
			C7,1.9,6.4,2.5,6.4,3.2v7.1c0,0.7,0.6,1.3,1.3,1.3h7.1c0.7,0,1.3-0.6,1.3-1.3V3.2z M14.8,13.5H7.7c-1.8,0-3.2-1.4-3.2-3.2V3.2
			C4.5,1.4,5.9,0,7.7,0h7.1C16.6,0,18,1.4,18,3.2v7.1C18,12.1,16.6,13.5,14.8,13.5z"/>
	</defs>
	<use xlink:href="#SVGID_1_"  style="overflow:visible;"/>
	<clipPath id="SVGID_2_">
		<use xlink:href="#SVGID_1_"  style="overflow:visible;"/>
	</clipPath>
</g>
</svg>
