<?xml version="1.0" encoding="utf-8"?>
<!-- Generator: Adobe Illustrator 23.0.1, SVG Export Plug-In . SVG Version: 6.00 Build 0)  -->
<svg version="1.1" id="Layer_1" xmlns="http://www.w3.org/2000/svg" xmlns:xlink="http://www.w3.org/1999/xlink" x="0px" y="0px"
	 viewBox="0 0 18 18" style="enable-background:new 0 0 18 18;" xml:space="preserve">
<g>
	<path style="fill: #9699ab" d="M14.5,14.4L14.5,14.4c0,0.9-0.7,1.7-1.7,1.7H3.6c-0.9,0-1.7-0.8-1.7-1.7V5.2c0-0.9,0.8-1.7,1.7-1.7h5.3l1.8-1.8H3.6
		c-1.9,0-3.5,1.6-3.5,3.5v9.2c0,1.9,1.6,3.5,3.5,3.5h9.2c1.9,0,3.5-1.6,3.5-3.5V7.3l-1.8,1.8V14.4z"/>
	<path style="fill: #9699ab" d="M17.5,1.6l-1.1-1.1C15.9,0,15,0,14.5,0.5L7.9,7l3,3l6.5-6.5C18,3,18,2.1,17.5,1.6z"/>
	<path style="fill: #9699ab" d="M5.8,12.9l2.5-0.8c0.5-0.2,1-0.5,1.4-0.8l-3-3C6.3,8.8,6.1,9.2,5.9,9.7l-0.8,2.5C4.9,12.6,5.3,13.1,5.8,12.9z"/>
</g>
</svg>
