<?xml version="1.0" encoding="UTF-8"?>
<svg width="60px" height="60px" viewBox="0 0 60 60" version="1.1" xmlns="http://www.w3.org/2000/svg" xmlns:xlink="http://www.w3.org/1999/xlink">
    <!-- Generator: Sketch 55 (78076) - https://sketchapp.com -->
    <title>app_icon_60</title>
    <desc>Created with Sketch.</desc>
    <defs>
        <linearGradient x1="50%" y1="100%" x2="50%" y2="0%" id="linearGradient-1">
            <stop stop-color="#FF3B30" offset="0%"></stop>
            <stop stop-color="#FC635B" offset="100%"></stop>
        </linearGradient>
        <path d="M9.46434185,-3.82370739e-16 L23.3481581,3.82370739e-16 C26.639116,-2.22168411e-16 27.8324968,0.342657041 29.0356218,0.986095332 C30.2387468,1.62953362 31.1829664,2.57375316 31.8264047,3.77687816 C32.469843,4.98000316 32.8125,6.173384 32.8125,9.46434185 L32.8125,23.3481581 C32.8125,26.639116 32.469843,27.8324968 31.8264047,29.0356218 C31.1829664,30.2387468 30.2387468,31.1829664 29.0356218,31.8264047 C27.8324968,32.469843 26.639116,32.8125 23.3481581,32.8125 L9.46434185,32.8125 C6.173384,32.8125 4.98000316,32.469843 3.77687816,31.8264047 C2.57375316,31.1829664 1.62953362,30.2387468 0.986095332,29.0356218 C0.342657041,27.8324968 1.48112274e-16,26.639116 -2.54913826e-16,23.3481581 L2.54913826e-16,9.46434185 C-1.48112274e-16,6.173384 0.342657041,4.98000316 0.986095332,3.77687816 C1.62953362,2.57375316 2.57375316,1.62953362 3.77687816,0.986095332 C4.98000316,0.342657041 6.173384,2.22168411e-16 9.46434185,-3.82370739e-16 Z" id="path-2"></path>
    </defs>
    <g id="App-icon" stroke="none" stroke-width="1" fill="none" fill-rule="evenodd">
        <g transform="translate(-3289.000000, -150.000000)">
            <rect fill="#FFFFFF" x="0" y="0" width="3922" height="1324"></rect>
            <g id="App-Icon" transform="translate(3289.000000, 150.000000)">
                <rect fill="#F9F9F9" x="0" y="0" width="60" height="60"></rect>
                <g id="logo" stroke-width="1" fill-rule="evenodd">
                    <g id="grid" stroke="#000000" stroke-opacity="0.2" stroke-width="0.5">
                        <path d="M0,0 L60,60" id="Path-2" stroke-linecap="square"></path>
                        <path d="M60,0 L0,60" id="Path-3" stroke-linecap="square"></path>
                        <path d="M0,30 L60,30" id="Path-4" stroke-linecap="square"></path>
                        <path d="M30,0 L30,60" id="Path-5" stroke-linecap="square"></path>
                        <polygon id="Path-19" stroke-linecap="square" points="3.92578125 3.92578125 3.92578125 56.0742188 56.0742188 56.0742188 56.0742188 3.92578125"></polygon>
                        <path d="M18.6914062,0 L18.6914063,60" id="Path-20" stroke-linecap="square"></path>
                        <path d="M41.3085938,0 L41.3085938,60" id="Path-21" stroke-linecap="square"></path>
                        <path d="M60,18.6914062 L0,18.6914062" id="Path-22" stroke-linecap="square"></path>
                        <path d="M60,41.3085938 L0,41.3085938" id="Path-23" stroke-linecap="square"></path>
                        <circle id="Oval" cx="30" cy="30" r="25.8828125"></circle>
                        <circle id="Oval-2" cx="30" cy="30" r="11.1171875"></circle>
                        <circle id="Oval-2" cx="30" cy="30" r="15.8046875"></circle>
                    </g>
                    <rect id="BG" fill="url(#linearGradient-1)" x="0" y="0" width="60" height="60"></rect>
                    <g id="Group-3" transform="translate(30.000000, 30.000000) rotate(-45.000000) translate(-30.000000, -30.000000) translate(13.593750, 13.593750)">
                        <mask id="mask-3" fill="white">
                            <use xlink:href="#path-2"></use>
                        </mask>
                        <g id="App-Icon"></g>
                        <g id="Group-2" mask="url(#mask-3)" fill="#FFFFFF">
                            <g transform="translate(16.406250, 16.406250) rotate(-360.000000) translate(-16.406250, -16.406250) ">
                                <path d="M3.28125,0 L29.53125,0 C31.3434343,0 32.8125,1.46906566 32.8125,3.28125 L32.8125,6.34375 C32.8125,6.46456229 32.7145623,6.5625 32.59375,6.5625 L6.78125,6.5625 C6.66043771,6.5625 6.5625,6.66043771 6.5625,6.78125 L6.5625,32.59375 C6.5625,32.7145623 6.46456229,32.8125 6.34375,32.8125 L3.28125,32.8125 C1.46906566,32.8125 2.21928575e-16,31.3434343 0,29.53125 L0,3.28125 C-2.21928575e-16,1.46906566 1.46906566,3.32892862e-16 3.28125,0 Z" id="Path"></path>
                                <path d="M13.125,19.46875 L13.125,13.34375 C13.125,13.2229377 13.2229377,13.125 13.34375,13.125 L32.59375,13.125 C32.7145623,13.125 32.8125,13.2229377 32.8125,13.34375 L32.8125,19.46875 C32.8125,19.5895623 32.7145623,19.6875 32.59375,19.6875 L13.34375,19.6875 C13.2229377,19.6875 13.125,19.5895623 13.125,19.46875 Z M13.125,32.59375 L13.125,26.46875 C13.125,26.3479377 13.2229377,26.25 13.34375,26.25 L32.59375,26.25 C32.7145623,26.25 32.8125,26.3479377 32.8125,26.46875 L32.8125,29.53125 C32.8125,31.3434343 31.3434343,32.8125 29.53125,32.8125 L13.34375,32.8125 C13.2229377,32.8125 13.125,32.7145623 13.125,32.59375 Z" id="Shape"></path>
                            </g>
                        </g>
                    </g>
                </g>
            </g>
        </g>
    </g>
</svg>