<?xml version="1.0" encoding="utf-8"?>
<!-- Generator: Adobe Illustrator 23.0.1, SVG Export Plug-In . SVG Version: 6.00 Build 0)  -->
<svg version="1.1" id="Layer_1" xmlns="http://www.w3.org/2000/svg" xmlns:xlink="http://www.w3.org/1999/xlink" x="0px" y="0px"
	 viewBox="0 0 15 16" style="enable-background:new 0 0 15 16;" xml:space="preserve">
<g>
	<defs>
		<path id="SVGID_1export_" style="fill: #9699ab" d="M13.2,0.3l-7,8c-0.4,0.4-0.3,1,0.1,1.4c0.4,0.4,1,0.3,1.4-0.1l7-8c0.4-0.4,0.3-1-0.1-1.4
			C14.2-0.1,13.6-0.1,13.2,0.3z"/>
	</defs>
	<use xlink:href="#SVGID_1export_"  style="overflow:visible;"/>
	<clipPath id="SVGID_2export_">
		<use xlink:href="#SVGID_1export_"  style="overflow:visible;"/>
	</clipPath>
</g>
<g>
	<defs>
		<path id="SVGID_3export_" style="fill: #9699ab" d="M13,2v3c0,0.6,0.4,1,1,1s1-0.4,1-1V1c0-0.6-0.4-1-1-1h-4C9.4,0,9,0.4,9,1s0.4,1,1,1H13z"/>
	</defs>
	<use xlink:href="#SVGID_3export_"  style="overflow:visible;"/>
	<clipPath id="SVGID_4export_">
		<use xlink:href="#SVGID_3export_"  style="overflow:visible;"/>
	</clipPath>
</g>
<g>
	<defs>
		<path id="SVGID_5export_" style="fill: #9699ab" d="M12,9.3v2.5C12,13,11,14,9.8,14H4.2C3,14,2,13,2,11.8V6.2C2,5,3,4,4.2,4H7c0.6,0,1-0.4,1-1S7.6,2,7,2H4.2
			C1.9,2,0,3.9,0,6.2v5.6C0,14.1,1.9,16,4.2,16h5.6c2.3,0,4.2-1.9,4.2-4.2V9.3c0-0.6-0.4-1-1-1S12,8.8,12,9.3z"/>
	</defs>
	<use xlink:href="#SVGID_5export_"  style="overflow:visible;"/>
	<clipPath id="SVGID_6export_">
		<use xlink:href="#SVGID_5export_"  style="overflow:visible;"/>
	</clipPath>
</g>
</svg>
