<?xml version="1.0" encoding="utf-8"?>
<!-- Generator: Adobe Illustrator 23.0.1, SVG Export Plug-In . SVG Version: 6.00 Build 0)  -->
<svg version="1.1" id="Layer_1" xmlns="http://www.w3.org/2000/svg" xmlns:xlink="http://www.w3.org/1999/xlink" x="0px" y="0px"
	 viewBox="0 0 64 64" style="enable-background:new 0 0 64 64;" xml:space="preserve">
<g>
	<defs>
		<path id="SVGID_1_" d="M59,0c2.8,0,5,2.2,5,5v6c0,2.8-2.2,5-5,5H5c-2.8,0-5-2.2-5-5V5c0-2.8,2.2-5,5-5H59z M24,22c2.8,0,5,2.2,5,5
			v4c0,2.8-2.2,5-5,5H5c-2.8,0-5-2.2-5-5v-4c0-2.8,2.2-5,5-5H24z M59,22c2.8,0,5,2.2,5,5v32c0,2.8-2.2,5-5,5H40c-2.8,0-5-2.2-5-5V27
			c0-2.8,2.2-5,5-5H59z M24,42c2.8,0,5,2.2,5,5v12c0,2.8-2.2,5-5,5H5c-2.8,0-5-2.2-5-5V47c0-2.8,2.2-5,5-5H24z"/>
	</defs>
	<use xlink:href="#SVGID_1_"  style="overflow:visible;fill-rule:evenodd;clip-rule:evenodd;"/>
	<clipPath id="SVGID_2_">
		<use xlink:href="#SVGID_1_"  style="overflow:visible;"/>
	</clipPath>
</g>
</svg>
