<?xml version="1.0" encoding="utf-8"?>
<!-- Generator: Adobe Illustrator 23.0.1, SVG Export Plug-In . SVG Version: 6.00 Build 0)  -->
<svg version="1.1" id="Layer_1" xmlns="http://www.w3.org/2000/svg" xmlns:xlink="http://www.w3.org/1999/xlink" x="0px" y="0px"
	 viewBox="0 0 20 20" style="enable-background:new 0 0 20 20;" xml:space="preserve">
<g>
	<defs>
		<path id="SVGID_1_" style="fill: #9699ab" d="M15,4c0.6,0,1,0.4,1,1v0.3c0,0.6-0.4,1-1,1H5c-0.6,0-1-0.4-1-1V5c0-0.6,0.4-1,1-1H15z M17,2H3
			C2.4,2,2,2.4,2,3v14c0,0.6,0.4,1,1,1h14c0.6,0,1-0.4,1-1V3C18,2.4,17.6,2,17,2z M17,0c1.7,0,3,1.3,3,3v14c0,1.7-1.3,3-3,3H3
			c-1.7,0-3-1.3-3-3V3c0-1.7,1.3-3,3-3H17z"/>
	</defs>
	<use xlink:href="#SVGID_1_"  style="overflow:visible;"/>
	<clipPath id="SVGID_2_">
		<use xlink:href="#SVGID_1_"  style="overflow:visible;"/>
	</clipPath>
</g>
</svg>
