<?xml version="1.0" encoding="utf-8"?>
<!-- Generator: Adobe Illustrator 23.0.1, SVG Export Plug-In . SVG Version: 6.00 Build 0)  -->
<svg version="1.1" id="Layer_1" xmlns="http://www.w3.org/2000/svg" xmlns:xlink="http://www.w3.org/1999/xlink" x="0px" y="0px"
	 viewBox="0 0 20 20" style="enable-background:new 0 0 20 20;" xml:space="preserve">
<g>
	<defs>
		<path id="SVGID_1_" style="fill: #9699ab" d="M17,13H3c-0.6,0-1,0.4-1,1v3c0,0.6,0.4,1,1,1h14c0.6,0,1-0.4,1-1v-3C18,13.4,17.6,13,17,13z M17,11
			c1.7,0,3,1.3,3,3v3c0,1.7-1.3,3-3,3H3c-1.7,0-3-1.3-3-3v-3c0-1.7,1.3-3,3-3H17z"/>
	</defs>
	<use xlink:href="#SVGID_1_"  style="overflow:visible;"/>
	<clipPath id="SVGID_2_">
		<use xlink:href="#SVGID_1_"  style="overflow:visible;"/>
	</clipPath>
</g>
<g>
	<defs>
		<path id="SVGID_3_" style="fill: #9699ab" d="M17,2H3C2.4,2,2,2.4,2,3v3c0,0.6,0.4,1,1,1h14c0.6,0,1-0.4,1-1V3C18,2.4,17.6,2,17,2z M17,0
			c1.7,0,3,1.3,3,3v3c0,1.7-1.3,3-3,3H3C1.3,9,0,7.7,0,6V3c0-1.7,1.3-3,3-3H17z"/>
	</defs>
	<use xlink:href="#SVGID_3_"  style="overflow:visible;"/>
	<clipPath id="SVGID_4_">
		<use xlink:href="#SVGID_3_"  style="overflow:visible;"/>
	</clipPath>
</g>
</svg>
