<?xml version="1.0" encoding="utf-8"?>
		<!-- Generator: Adobe Illustrator 23.0.1, SVG Export Plug-In . SVG Version: 6.00 Build 0)  -->
<svg version="1.1" id="Layer_1" xmlns="http://www.w3.org/2000/svg" xmlns:xlink="http://www.w3.org/1999/xlink" x="0px" y="0px"
	 viewBox="0 0 16 4" style="enable-background:new 0 0 16 4;" xml:space="preserve">
<style type="text/css">
	.st0{fill-rule:evenodd;clip-rule:evenodd;}
</style>
<path id="Ellipse_4_copy_2" style="fill: #bdbdc5" class="st0" d="M2,0c1.1,0,2,0.9,2,2S3.1,4,2,4S0,3.1,0,2S0.9,0,2,0z M8,0c1.1,0,2,0.9,2,2S9.1,4,8,4
	S6,3.1,6,2S6.9,0,8,0z M14,0c1.1,0,2,0.9,2,2s-0.9,2-2,2s-2-0.9-2-2S12.9,0,14,0z"/>
</svg>
