<?xml version="1.0" encoding="utf-8"?>
<!-- Generator: Adobe Illustrator 21.1.0, SVG Export Plug-In . SVG Version: 6.00 Build 0)  -->
<svg version="1.1" id="Layer_1" xmlns="http://www.w3.org/2000/svg" xmlns:xlink="http://www.w3.org/1999/xlink" x="0px" y="0px"
	 viewBox="0 0 50 50" style="enable-background:new 0 0 50 50;" xml:space="preserve">
<style type="text/css">
	.st0{fill:#668E32;}
</style>
<g>
	<g>
		<path id="SVGID_1_" class="st0" d="M27,26.9v4.8c0.4-0.2,0.7-0.3,1-0.6c0.7-0.5,1-1.1,1-2.1c0-1.1-0.2-1.2-0.9-1.6
			C27.8,27.2,27.4,27,27,26.9z M23,16.3c-0.4,0.2-0.7,0.3-1,0.6c-0.7,0.5-1,1.2-1,2.1c0,1.1,0.2,1.1,0.9,1.6
			c0.3,0.2,0.6,0.3,1.1,0.5V16.3z M25,9c1.1,0,2,0.9,2,2v1.2c2.6,0.6,4.6,2.2,5.7,4c0.4,0.6,0.4,1.4,0,2c-0.3,0.6-1,1-1.7,1
			s-1.4-0.4-1.8-1c-0.4-0.7-1.2-1.4-2.3-1.9v6.1c1,0.4,2.1,0.8,3.2,1.4c1.5,0.9,2.8,2.8,2.8,5c0,2.1-1,4-2.5,5.2
			c-1,0.8-2.2,1.4-3.5,1.6V37c0,1.1-0.9,2-2,2s-2-0.9-2-2v-1.2c-2.6-0.6-4.6-2.3-5.7-4.1c-0.6-0.9-0.3-2.2,0.7-2.7s2.2-0.3,2.7,0.7
			c0.4,0.7,1.2,1.5,2.3,1.9v-6.2c-1-0.4-2.1-0.8-3.2-1.4c-1.5-0.9-2.8-2.7-2.8-5c0-2.1,1-4,2.5-5.2c1-0.8,2.2-1.3,3.5-1.6V11
			C23,9.9,23.9,9,25,9z M25-1C11.2-1,0,10.2,0,24s11.2,25,25,25s25-11.2,25-25S38.8-1,25-1z"/>
	</g>
</g>
</svg>
