<?xml version="1.0" encoding="utf-8"?>
<!-- Generator: Adobe Illustrator 23.0.1, SVG Export Plug-In . SVG Version: 6.00 Build 0)  -->
<svg version="1.1" id="Layer_1" xmlns="http://www.w3.org/2000/svg" xmlns:xlink="http://www.w3.org/1999/xlink" x="0px" y="0px"
	 viewBox="0 0 18 18" style="enable-background:new 0 0 18 18;" xml:space="preserve">
<g>
	<defs>
		<path id="SVGID_1qr_" style="fill: #9699ab" d="M3.9,3.9h2.6v2.6H3.9V3.9z M10.3,15.4h2.6V18h-2.6V15.4z M15.4,15.4H18V18h-2.6V15.4z M2.6,15.4h2.6V18H2.6
			V15.4z M0,12.9h2.6v2.6H0V12.9z M10.3,10.3h2.6v2.6h-2.6V10.3z M15.4,0H18v2.6h-2.6V0z M2.6,2.6v2.6v2.6h2.6h2.6V5.1V2.6H5.1H2.6z
			 M15.4,10.3h-2.6V7.7h-2.6v2.6H7.7v2.6h2.6v2.6H7.7H5.1v-2.6v-2.6H2.6H0V7.7V5.1V2.6V0h2.6h2.6h2.6h2.6v2.6v2.6h2.6V2.6h2.6v2.6
			H18v2.6v2.6v2.6h-2.6V10.3z"/>
	</defs>
	<use xlink:href="#SVGID_1qr_"  style="overflow:visible;"/>
	<clipPath id="SVGID_2qr_">
		<use xlink:href="#SVGID_1qr_"  style="overflow:visible;"/>
	</clipPath>
</g>
</svg>
