<?xml version="1.0" encoding="utf-8"?>
<!-- Generator: Adobe Illustrator 23.0.1, SVG Export Plug-In . SVG Version: 6.00 Build 0)  -->
<svg version="1.1" id="Layer_1" xmlns="http://www.w3.org/2000/svg" xmlns:xlink="http://www.w3.org/1999/xlink" x="0px" y="0px"
	 viewBox="0 0 18 18" style="enable-background:new 0 0 18 18;" xml:space="preserve">
<g>
	<defs>
		<path id="SVGID_1_" style="fill: #9699ab" d="M5.5,3.6c0.4,0,0.8,0.2,1.1,0.4C6.8,4.3,7,4.7,7,5.1c0,0.8-0.7,1.5-1.5,1.5C4.7,6.6,4,5.9,4,5.1
			C4,4.3,4.7,3.6,5.5,3.6z M13,8c0.6,0,1,0.5,1,1c0,0.6-0.5,1-1,1H5c-0.6,0-1-0.4-1-1c0-0.6,0.4-1,1-1H13z M13,12c0.6,0,1,0.5,1,1
			c0,0.6-0.5,1-1,1H5c-0.6,0-1-0.4-1-1c0-0.6,0.4-1,1-1H13z M14.2,1.9H3.8c-1,0-1.9,0.8-1.9,1.9v10.4c0,1,0.8,1.9,1.9,1.9h10.4
			c1,0,1.9-0.8,1.9-1.9V3.8C16.1,2.7,15.3,1.9,14.2,1.9z M14.2,0C16.3,0,18,1.7,18,3.8v10.4c0,2.1-1.7,3.8-3.8,3.8H3.8
			C1.7,18,0,16.3,0,14.2V3.8C0,1.7,1.7,0,3.8,0H14.2z"/>
	</defs>
	<use xlink:href="#SVGID_1_"  style="overflow:visible;"/>
	<clipPath id="SVGID_2_">
		<use xlink:href="#SVGID_1_"  style="overflow:visible;"/>
	</clipPath>
</g>
</svg>
