<?xml version="1.0" encoding="utf-8"?>
<!-- Generator: Adobe Illustrator 23.0.1, SVG Export Plug-In . SVG Version: 6.00 Build 0)  -->
<svg version="1.1" id="Layer_1" xmlns="http://www.w3.org/2000/svg" xmlns:xlink="http://www.w3.org/1999/xlink" x="0px" y="0px"
	 viewBox="0 0 100 100" style="enable-background:new 0 0 100 100;" xml:space="preserve">
<g>
	<defs>
		<path id="SVGID_1_" d="M50,71.8C38,71.8,28.2,62,28.2,50c0-12,9.8-21.8,21.8-21.8c12,0,21.8,9.8,21.8,21.8
			C71.8,62,62,71.8,50,71.8z M98.4,43.7c-0.8-0.5-7.1-4.3-9.6-5.4l-3.1-7.5c0.9-2.5,2.7-9.4,3-10.6c0.3-1.1-0.1-2.3-0.9-3.1
			l-4.9-4.9c-0.8-0.8-2-1.2-3.1-0.9c-0.9,0.2-8,2-10.6,3l-7.5-3.1c-1.1-2.4-4.8-8.5-5.4-9.6c-0.6-1-1.7-1.6-2.8-1.6h-6.9
			c-1.1,0-2.2,0.6-2.8,1.6c-0.5,0.8-4.3,7.1-5.4,9.6l-7.5,3.1c-2.5-0.9-9.4-2.7-10.6-3c-1.1-0.3-2.3,0.1-3.1,0.9l-4.9,4.9
			c-0.8,0.8-1.2,2-0.9,3.1c0.2,0.9,2,8,3,10.6l-3.1,7.5c-2.4,1.1-8.5,4.8-9.6,5.4c-1,0.6-1.6,1.7-1.6,2.8v6.9c0,1.1,0.6,2.2,1.6,2.8
			c0.8,0.5,7.1,4.3,9.6,5.4l3.1,7.5c-0.9,2.5-2.7,9.4-3,10.6c-0.3,1.1,0.1,2.3,0.9,3.1l4.9,4.9c0.8,0.8,2,1.2,3.1,0.9
			c0.9-0.2,8-2,10.6-3l7.5,3.1c1.1,2.4,4.8,8.5,5.4,9.6c0.6,1,1.7,1.6,2.9,1.6h6.9c1.1,0,2.2-0.6,2.8-1.6c0.5-0.8,4.3-7.1,5.4-9.6
			l7.5-3.1c2.5,0.9,9.4,2.7,10.6,3c1.1,0.3,2.3-0.1,3.1-0.9l4.9-4.9c0.8-0.8,1.2-2,0.9-3.1c-0.2-0.9-2-8-3-10.6l3.1-7.5
			c2.4-1.1,8.5-4.8,9.6-5.4c1-0.6,1.6-1.7,1.6-2.9v-6.9C100,45.4,99.4,44.3,98.4,43.7z"/>
	</defs>
	<use xlink:href="#SVGID_1_"  style="overflow:visible;"/>
	<clipPath id="SVGID_2_">
		<use xlink:href="#SVGID_1_"  style="overflow:visible;"/>
	</clipPath>
</g>
</svg>
