<?xml version="1.0" encoding="utf-8"?>
<!-- Generator: Adobe Illustrator 23.0.1, SVG Export Plug-In . SVG Version: 6.00 Build 0)  -->
<svg version="1.1" id="Layer_1" xmlns="http://www.w3.org/2000/svg" xmlns:xlink="http://www.w3.org/1999/xlink" x="0px" y="0px"
	 viewBox="0 0 19 19" style="enable-background:new 0 0 19 19;" xml:space="preserve">
<g>
	<defs>
		<path id="SVGID_1_" style="fill: #9699ab" d="M16.8,3.5c0.4-0.5,1.1-0.7,1.7-0.3s0.7,1.1,0.3,1.7l-5.6,7.9c-0.5,0.7-1.5,0.7-1.9,0l-1.4-1.9l-2.7,3.2
			c-0.4,0.5-1.2,0.6-1.7,0.1c-0.5-0.4-0.6-1.2-0.1-1.7L9,8.2c0.5-0.6,1.4-0.6,1.9,0.1l1.3,1.8L16.8,3.5z M2,0.4
			c0.7,0,1.2,0.5,1.2,1.2v14.6h14.6c0.7,0,1.2,0.5,1.2,1.2c0,0.7-0.5,1.2-1.2,1.2H2.2c-0.4,0-0.7-0.2-0.9-0.5
			c-0.3-0.2-0.5-0.6-0.5-0.9V1.6C0.8,0.9,1.3,0.4,2,0.4z"/>
	</defs>
	<use xlink:href="#SVGID_1_"  style="overflow:visible;fill-rule:evenodd;clip-rule:evenodd;"/>
	<clipPath id="SVGID_2_">
		<use xlink:href="#SVGID_1_"  style="overflow:visible;"/>
	</clipPath>
</g>
</svg>
