<?xml version="1.0" encoding="utf-8"?>
<!-- Generator: Adobe Illustrator 23.0.1, SVG Export Plug-In . SVG Version: 6.00 Build 0)  -->
<svg version="1.1" id="Layer_1" xmlns="http://www.w3.org/2000/svg" xmlns:xlink="http://www.w3.org/1999/xlink" x="0px" y="0px"
	 viewBox="0 0 982 855" style="enable-background:new 0 0 982 855;" xml:space="preserve">
<style type="text/css">
	.st0{fill:#FE544B;}
</style>
<g>
	<defs>
		<path id="SVGID_1_" class="st0" d="M491,0.3c36.1,0,65.4,29.3,65.4,65.4c0,22.7-11.7,42.8-29.3,54.5l169.5,281L854.3,309
			c-2.1-6.3-3.2-13.1-3.2-20.1c0-36.1,29.3-65.4,65.4-65.4s65.4,29.3,65.4,65.4c0,36.1-29.3,65.4-65.4,65.4c-0.9,0-1.7-0.1-2.6-0.1
			l-87.2,315.6H155.2L68,354.2c-0.9,0.1-1.7,0.1-2.6,0.1C29.3,354.3,0,325,0,288.9c0-36.1,29.3-65.4,65.5-65.4
			c36.1,0,65.4,29.3,65.4,65.4c0,7-1.2,13.8-3.2,20.1l157.7,92.2l169.5-281c-17.7-11.7-29.3-31.7-29.3-54.5
			C425.6,29.6,454.9,0.3,491,0.3z M806,744.5c30.4,0,55,24.6,55,55c0,30.3-24.6,55-55,55H175.9c-30.4,0-55-24.6-55-55s24.6-55,55-55
			H806z"/>
	</defs>
	<use xlink:href="#SVGID_1_"  style="overflow:visible;"/>
	<clipPath id="SVGID_2_">
		<use xlink:href="#SVGID_1_"  style="overflow:visible;"/>
	</clipPath>
</g>
</svg>
